<mxfile host="app.diagrams.net" modified="2023-12-30T01:07:10.693Z" agent="Mozilla/5.0 (X11; Linux x86_64) AppleWebKit/537.36 (KHTML, like Gecko) Chrome/116.0.0.0 Safari/537.36" etag="2CTTX7tlHgbM1NNi2ows" version="22.1.16" type="device">
  <diagram name="Page-1" id="mFkK6YExv0gLqEzGwd7S">
    <mxGraphModel dx="2988" dy="2040" grid="1" gridSize="10" guides="1" tooltips="1" connect="1" arrows="1" fold="1" page="1" pageScale="1" pageWidth="850" pageHeight="1100" math="0" shadow="0">
      <root>
        <mxCell id="0" />
        <mxCell id="1" parent="0" />
        <mxCell id="9qxclZ9WIJRdPY8J6UA6-939" value="" style="rounded=0;whiteSpace=wrap;html=1;fillColor=#E6E6E6;" vertex="1" parent="1">
          <mxGeometry x="350" y="590" width="10" height="10" as="geometry" />
        </mxCell>
        <mxCell id="9qxclZ9WIJRdPY8J6UA6-938" value="" style="rounded=0;whiteSpace=wrap;html=1;fillColor=#E6E6E6;" vertex="1" parent="1">
          <mxGeometry x="340" y="590" width="10" height="10" as="geometry" />
        </mxCell>
        <mxCell id="9qxclZ9WIJRdPY8J6UA6-1" value="" style="endArrow=none;html=1;rounded=0;" edge="1" parent="1">
          <mxGeometry width="50" height="50" relative="1" as="geometry">
            <mxPoint x="40" y="440" as="sourcePoint" />
            <mxPoint x="600" y="440" as="targetPoint" />
          </mxGeometry>
        </mxCell>
        <mxCell id="9qxclZ9WIJRdPY8J6UA6-2" value="" style="endArrow=none;html=1;rounded=0;" edge="1" parent="1">
          <mxGeometry width="50" height="50" relative="1" as="geometry">
            <mxPoint x="40" y="360" as="sourcePoint" />
            <mxPoint x="600" y="360" as="targetPoint" />
          </mxGeometry>
        </mxCell>
        <mxCell id="9qxclZ9WIJRdPY8J6UA6-3" value="" style="endArrow=none;html=1;rounded=0;" edge="1" parent="1">
          <mxGeometry width="50" height="50" relative="1" as="geometry">
            <mxPoint x="40" y="280" as="sourcePoint" />
            <mxPoint x="600" y="280" as="targetPoint" />
          </mxGeometry>
        </mxCell>
        <mxCell id="9qxclZ9WIJRdPY8J6UA6-4" value="" style="endArrow=none;html=1;rounded=0;" edge="1" parent="1">
          <mxGeometry width="50" height="50" relative="1" as="geometry">
            <mxPoint x="40" y="200" as="sourcePoint" />
            <mxPoint x="600" y="200" as="targetPoint" />
          </mxGeometry>
        </mxCell>
        <mxCell id="9qxclZ9WIJRdPY8J6UA6-5" value="" style="endArrow=none;html=1;rounded=0;" edge="1" parent="1">
          <mxGeometry width="50" height="50" relative="1" as="geometry">
            <mxPoint x="40" y="120" as="sourcePoint" />
            <mxPoint x="600" y="120" as="targetPoint" />
          </mxGeometry>
        </mxCell>
        <mxCell id="9qxclZ9WIJRdPY8J6UA6-6" value="" style="endArrow=none;html=1;rounded=0;" edge="1" parent="1">
          <mxGeometry width="50" height="50" relative="1" as="geometry">
            <mxPoint x="40" y="40" as="sourcePoint" />
            <mxPoint x="600" y="40" as="targetPoint" />
          </mxGeometry>
        </mxCell>
        <mxCell id="9qxclZ9WIJRdPY8J6UA6-7" value="T1" style="text;html=1;strokeColor=none;fillColor=none;align=center;verticalAlign=middle;whiteSpace=wrap;rounded=0;" vertex="1" parent="1">
          <mxGeometry x="10" y="410" width="20" height="30" as="geometry" />
        </mxCell>
        <mxCell id="9qxclZ9WIJRdPY8J6UA6-8" value="T2" style="text;html=1;strokeColor=none;fillColor=none;align=center;verticalAlign=middle;whiteSpace=wrap;rounded=0;" vertex="1" parent="1">
          <mxGeometry x="-10" y="330" width="60" height="30" as="geometry" />
        </mxCell>
        <mxCell id="9qxclZ9WIJRdPY8J6UA6-9" value="T3" style="text;html=1;strokeColor=none;fillColor=none;align=center;verticalAlign=middle;whiteSpace=wrap;rounded=0;" vertex="1" parent="1">
          <mxGeometry x="-10" y="260" width="60" height="30" as="geometry" />
        </mxCell>
        <mxCell id="9qxclZ9WIJRdPY8J6UA6-10" value="T4" style="text;html=1;strokeColor=none;fillColor=none;align=center;verticalAlign=middle;whiteSpace=wrap;rounded=0;" vertex="1" parent="1">
          <mxGeometry x="-10" y="180" width="60" height="30" as="geometry" />
        </mxCell>
        <mxCell id="9qxclZ9WIJRdPY8J6UA6-11" value="T5" style="text;html=1;strokeColor=none;fillColor=none;align=center;verticalAlign=middle;whiteSpace=wrap;rounded=0;" vertex="1" parent="1">
          <mxGeometry x="10" y="105" width="20" height="20" as="geometry" />
        </mxCell>
        <mxCell id="9qxclZ9WIJRdPY8J6UA6-12" value="Server" style="text;html=1;strokeColor=none;fillColor=none;align=center;verticalAlign=middle;whiteSpace=wrap;rounded=0;" vertex="1" parent="1">
          <mxGeometry x="-20" y="20" width="60" height="30" as="geometry" />
        </mxCell>
        <mxCell id="9qxclZ9WIJRdPY8J6UA6-13" value="0" style="text;html=1;strokeColor=none;fillColor=none;align=center;verticalAlign=middle;whiteSpace=wrap;rounded=0;" vertex="1" parent="1">
          <mxGeometry x="10" y="440" width="60" height="30" as="geometry" />
        </mxCell>
        <mxCell id="9qxclZ9WIJRdPY8J6UA6-22" value="" style="endArrow=classic;html=1;rounded=0;" edge="1" parent="1">
          <mxGeometry width="50" height="50" relative="1" as="geometry">
            <mxPoint x="159.76" y="260" as="sourcePoint" />
            <mxPoint x="159.76" y="280" as="targetPoint" />
          </mxGeometry>
        </mxCell>
        <mxCell id="9qxclZ9WIJRdPY8J6UA6-23" value="" style="endArrow=classic;html=1;rounded=0;entryX=0.5;entryY=0;entryDx=0;entryDy=0;" edge="1" parent="1">
          <mxGeometry width="50" height="50" relative="1" as="geometry">
            <mxPoint x="159.76" y="100" as="sourcePoint" />
            <mxPoint x="159.76" y="120" as="targetPoint" />
          </mxGeometry>
        </mxCell>
        <mxCell id="9qxclZ9WIJRdPY8J6UA6-24" value="" style="endArrow=classic;html=1;rounded=0;entryX=0.5;entryY=0;entryDx=0;entryDy=0;" edge="1" parent="1">
          <mxGeometry width="50" height="50" relative="1" as="geometry">
            <mxPoint x="279.76" y="420" as="sourcePoint" />
            <mxPoint x="279.76" y="440" as="targetPoint" />
          </mxGeometry>
        </mxCell>
        <mxCell id="9qxclZ9WIJRdPY8J6UA6-25" value="" style="endArrow=classic;html=1;rounded=0;entryX=0.5;entryY=0;entryDx=0;entryDy=0;" edge="1" parent="1">
          <mxGeometry width="50" height="50" relative="1" as="geometry">
            <mxPoint x="279.76" y="180" as="sourcePoint" />
            <mxPoint x="279.76" y="200" as="targetPoint" />
          </mxGeometry>
        </mxCell>
        <mxCell id="9qxclZ9WIJRdPY8J6UA6-28" value="" style="endArrow=classic;html=1;rounded=0;entryX=0.5;entryY=0;entryDx=0;entryDy=0;" edge="1" parent="1">
          <mxGeometry width="50" height="50" relative="1" as="geometry">
            <mxPoint x="220" y="339" as="sourcePoint" />
            <mxPoint x="220" y="359" as="targetPoint" />
          </mxGeometry>
        </mxCell>
        <mxCell id="9qxclZ9WIJRdPY8J6UA6-29" value="" style="endArrow=classic;html=1;rounded=0;entryX=0.5;entryY=0;entryDx=0;entryDy=0;" edge="1" parent="1">
          <mxGeometry width="50" height="50" relative="1" as="geometry">
            <mxPoint x="159.76" y="20" as="sourcePoint" />
            <mxPoint x="159.76" y="40" as="targetPoint" />
          </mxGeometry>
        </mxCell>
        <mxCell id="9qxclZ9WIJRdPY8J6UA6-30" value="" style="endArrow=classic;html=1;rounded=0;entryX=0.5;entryY=0;entryDx=0;entryDy=0;" edge="1" parent="1">
          <mxGeometry width="50" height="50" relative="1" as="geometry">
            <mxPoint x="279.76" y="260" as="sourcePoint" />
            <mxPoint x="279.76" y="280" as="targetPoint" />
          </mxGeometry>
        </mxCell>
        <mxCell id="9qxclZ9WIJRdPY8J6UA6-31" value="" style="endArrow=classic;html=1;rounded=0;entryX=0.5;entryY=0;entryDx=0;entryDy=0;" edge="1" parent="1">
          <mxGeometry width="50" height="50" relative="1" as="geometry">
            <mxPoint x="279.76" y="20" as="sourcePoint" />
            <mxPoint x="279.76" y="40" as="targetPoint" />
          </mxGeometry>
        </mxCell>
        <mxCell id="9qxclZ9WIJRdPY8J6UA6-32" value="" style="endArrow=classic;html=1;rounded=0;entryX=0.5;entryY=0;entryDx=0;entryDy=0;" edge="1" parent="1">
          <mxGeometry width="50" height="50" relative="1" as="geometry">
            <mxPoint x="279.76" y="100" as="sourcePoint" />
            <mxPoint x="279.76" y="120" as="targetPoint" />
          </mxGeometry>
        </mxCell>
        <mxCell id="9qxclZ9WIJRdPY8J6UA6-46" value="" style="endArrow=none;html=1;rounded=0;" edge="1" parent="1">
          <mxGeometry width="50" height="50" relative="1" as="geometry">
            <mxPoint x="39.760000000000005" y="200" as="sourcePoint" />
            <mxPoint x="40" y="140" as="targetPoint" />
          </mxGeometry>
        </mxCell>
        <mxCell id="9qxclZ9WIJRdPY8J6UA6-47" value="" style="endArrow=none;html=1;rounded=0;" edge="1" parent="1">
          <mxGeometry width="50" height="50" relative="1" as="geometry">
            <mxPoint x="39.760000000000005" y="280" as="sourcePoint" />
            <mxPoint x="40" y="220" as="targetPoint" />
          </mxGeometry>
        </mxCell>
        <mxCell id="9qxclZ9WIJRdPY8J6UA6-48" value="" style="endArrow=none;html=1;rounded=0;" edge="1" parent="1">
          <mxGeometry width="50" height="50" relative="1" as="geometry">
            <mxPoint x="39.760000000000005" y="120" as="sourcePoint" />
            <mxPoint x="40" y="60" as="targetPoint" />
          </mxGeometry>
        </mxCell>
        <mxCell id="9qxclZ9WIJRdPY8J6UA6-49" value="" style="endArrow=none;html=1;rounded=0;" edge="1" parent="1">
          <mxGeometry width="50" height="50" relative="1" as="geometry">
            <mxPoint x="39.760000000000005" y="40" as="sourcePoint" />
            <mxPoint x="40" y="-20" as="targetPoint" />
          </mxGeometry>
        </mxCell>
        <mxCell id="9qxclZ9WIJRdPY8J6UA6-50" value="" style="endArrow=none;html=1;rounded=0;" edge="1" parent="1">
          <mxGeometry width="50" height="50" relative="1" as="geometry">
            <mxPoint x="39.52000000000001" y="360" as="sourcePoint" />
            <mxPoint x="39.760000000000005" y="300" as="targetPoint" />
          </mxGeometry>
        </mxCell>
        <mxCell id="9qxclZ9WIJRdPY8J6UA6-51" value="" style="endArrow=none;html=1;rounded=0;" edge="1" parent="1">
          <mxGeometry width="50" height="50" relative="1" as="geometry">
            <mxPoint x="40.00000000000001" y="440" as="sourcePoint" />
            <mxPoint x="40.24" y="380" as="targetPoint" />
          </mxGeometry>
        </mxCell>
        <mxCell id="9qxclZ9WIJRdPY8J6UA6-53" value="4" style="text;html=1;strokeColor=none;fillColor=none;align=center;verticalAlign=middle;whiteSpace=wrap;rounded=0;" vertex="1" parent="1">
          <mxGeometry x="65" y="370" width="30" height="10" as="geometry" />
        </mxCell>
        <mxCell id="9qxclZ9WIJRdPY8J6UA6-58" value="8" style="text;html=1;strokeColor=none;fillColor=none;align=center;verticalAlign=middle;whiteSpace=wrap;rounded=0;" vertex="1" parent="1">
          <mxGeometry x="105" y="370" width="30" height="10" as="geometry" />
        </mxCell>
        <mxCell id="9qxclZ9WIJRdPY8J6UA6-59" value="12" style="text;html=1;strokeColor=none;fillColor=none;align=center;verticalAlign=middle;whiteSpace=wrap;rounded=0;" vertex="1" parent="1">
          <mxGeometry x="145" y="370" width="30" height="10" as="geometry" />
        </mxCell>
        <mxCell id="9qxclZ9WIJRdPY8J6UA6-60" value="20" style="text;html=1;strokeColor=none;fillColor=none;align=center;verticalAlign=middle;whiteSpace=wrap;rounded=0;" vertex="1" parent="1">
          <mxGeometry x="230" y="370" width="20" height="10" as="geometry" />
        </mxCell>
        <mxCell id="9qxclZ9WIJRdPY8J6UA6-61" value="24" style="text;html=1;strokeColor=none;fillColor=none;align=center;verticalAlign=middle;whiteSpace=wrap;rounded=0;" vertex="1" parent="1">
          <mxGeometry x="270" y="370" width="20" height="10" as="geometry" />
        </mxCell>
        <mxCell id="9qxclZ9WIJRdPY8J6UA6-62" value="16" style="text;html=1;strokeColor=none;fillColor=none;align=center;verticalAlign=middle;whiteSpace=wrap;rounded=0;" vertex="1" parent="1">
          <mxGeometry x="190" y="370" width="20" height="10" as="geometry" />
        </mxCell>
        <mxCell id="9qxclZ9WIJRdPY8J6UA6-83" value="" style="rounded=0;whiteSpace=wrap;html=1;fillColor=#E6E6E6;" vertex="1" parent="1">
          <mxGeometry x="40" y="110" width="10" height="10" as="geometry" />
        </mxCell>
        <mxCell id="9qxclZ9WIJRdPY8J6UA6-85" value="" style="endArrow=none;html=1;rounded=0;exitX=0;exitY=1;exitDx=0;exitDy=0;entryX=1;entryY=0;entryDx=0;entryDy=0;" edge="1" parent="1" source="9qxclZ9WIJRdPY8J6UA6-83" target="9qxclZ9WIJRdPY8J6UA6-83">
          <mxGeometry width="50" height="50" relative="1" as="geometry">
            <mxPoint x="120" y="170" as="sourcePoint" />
            <mxPoint x="430" y="210" as="targetPoint" />
          </mxGeometry>
        </mxCell>
        <mxCell id="9qxclZ9WIJRdPY8J6UA6-86" value="" style="endArrow=classic;html=1;rounded=0;" edge="1" parent="1">
          <mxGeometry width="50" height="50" relative="1" as="geometry">
            <mxPoint x="89.52" y="40" as="sourcePoint" />
            <mxPoint x="90" y="20" as="targetPoint" />
          </mxGeometry>
        </mxCell>
        <mxCell id="9qxclZ9WIJRdPY8J6UA6-87" value="4" style="text;html=1;strokeColor=none;fillColor=none;align=center;verticalAlign=middle;whiteSpace=wrap;rounded=0;" vertex="1" parent="1">
          <mxGeometry x="80" width="20" height="20" as="geometry" />
        </mxCell>
        <mxCell id="9qxclZ9WIJRdPY8J6UA6-88" value="" style="endArrow=classic;html=1;rounded=0;" edge="1" parent="1">
          <mxGeometry width="50" height="50" relative="1" as="geometry">
            <mxPoint x="169.51999999999998" y="40" as="sourcePoint" />
            <mxPoint x="170" y="20" as="targetPoint" />
          </mxGeometry>
        </mxCell>
        <mxCell id="9qxclZ9WIJRdPY8J6UA6-89" value="1" style="text;html=1;strokeColor=none;fillColor=none;align=center;verticalAlign=middle;whiteSpace=wrap;rounded=0;" vertex="1" parent="1">
          <mxGeometry x="160" width="20" height="20" as="geometry" />
        </mxCell>
        <mxCell id="9qxclZ9WIJRdPY8J6UA6-90" value="" style="endArrow=classic;html=1;rounded=0;" edge="1" parent="1">
          <mxGeometry width="50" height="50" relative="1" as="geometry">
            <mxPoint x="309.52" y="40" as="sourcePoint" />
            <mxPoint x="310" y="20" as="targetPoint" />
          </mxGeometry>
        </mxCell>
        <mxCell id="9qxclZ9WIJRdPY8J6UA6-91" value="3" style="text;html=1;strokeColor=none;fillColor=none;align=center;verticalAlign=middle;whiteSpace=wrap;rounded=0;" vertex="1" parent="1">
          <mxGeometry x="300" y="10" width="10" height="10" as="geometry" />
        </mxCell>
        <mxCell id="9qxclZ9WIJRdPY8J6UA6-92" value="" style="endArrow=none;dashed=1;html=1;dashPattern=1 3;strokeWidth=2;rounded=0;exitX=0.5;exitY=0.333;exitDx=0;exitDy=0;exitPerimeter=0;" edge="1" parent="1">
          <mxGeometry width="50" height="50" relative="1" as="geometry">
            <mxPoint x="160" y="39.99000000000001" as="sourcePoint" />
            <mxPoint x="160" y="-20" as="targetPoint" />
          </mxGeometry>
        </mxCell>
        <mxCell id="9qxclZ9WIJRdPY8J6UA6-93" value="" style="endArrow=none;dashed=1;html=1;dashPattern=1 3;strokeWidth=2;rounded=0;exitX=0.5;exitY=0.333;exitDx=0;exitDy=0;exitPerimeter=0;" edge="1" parent="1">
          <mxGeometry width="50" height="50" relative="1" as="geometry">
            <mxPoint x="279.83" y="40" as="sourcePoint" />
            <mxPoint x="279.83" y="-20" as="targetPoint" />
          </mxGeometry>
        </mxCell>
        <mxCell id="9qxclZ9WIJRdPY8J6UA6-94" value="" style="rounded=0;whiteSpace=wrap;html=1;fillColor=#E6E6E6;" vertex="1" parent="1">
          <mxGeometry x="50" y="270" width="10" height="10" as="geometry" />
        </mxCell>
        <mxCell id="9qxclZ9WIJRdPY8J6UA6-95" value="" style="rounded=0;whiteSpace=wrap;html=1;fillColor=#E6E6E6;" vertex="1" parent="1">
          <mxGeometry x="60" y="270" width="10" height="10" as="geometry" />
        </mxCell>
        <mxCell id="9qxclZ9WIJRdPY8J6UA6-97" value="" style="endArrow=none;html=1;rounded=0;exitX=0;exitY=1;exitDx=0;exitDy=0;" edge="1" parent="1" source="9qxclZ9WIJRdPY8J6UA6-94">
          <mxGeometry width="50" height="50" relative="1" as="geometry">
            <mxPoint x="55" y="260" as="sourcePoint" />
            <mxPoint x="70" y="260" as="targetPoint" />
          </mxGeometry>
        </mxCell>
        <mxCell id="9qxclZ9WIJRdPY8J6UA6-99" value="" style="rounded=0;whiteSpace=wrap;html=1;fillColor=#E6E6E6;" vertex="1" parent="1">
          <mxGeometry x="70" y="350" width="10" height="10" as="geometry" />
        </mxCell>
        <mxCell id="9qxclZ9WIJRdPY8J6UA6-101" value="" style="rounded=0;whiteSpace=wrap;html=1;fillColor=#E6E6E6;" vertex="1" parent="1">
          <mxGeometry x="80" y="350" width="10" height="10" as="geometry" />
        </mxCell>
        <mxCell id="9qxclZ9WIJRdPY8J6UA6-102" value="" style="endArrow=none;html=1;rounded=0;exitX=0;exitY=1;exitDx=0;exitDy=0;" edge="1" parent="1" source="9qxclZ9WIJRdPY8J6UA6-99">
          <mxGeometry width="50" height="50" relative="1" as="geometry">
            <mxPoint x="120" y="360" as="sourcePoint" />
            <mxPoint x="90" y="340" as="targetPoint" />
          </mxGeometry>
        </mxCell>
        <mxCell id="9qxclZ9WIJRdPY8J6UA6-103" value="" style="endArrow=none;html=1;rounded=0;" edge="1" parent="1">
          <mxGeometry width="50" height="50" relative="1" as="geometry">
            <mxPoint x="70" y="260" as="sourcePoint" />
            <mxPoint x="110" y="260" as="targetPoint" />
          </mxGeometry>
        </mxCell>
        <mxCell id="9qxclZ9WIJRdPY8J6UA6-106" value="" style="endArrow=none;html=1;rounded=0;" edge="1" parent="1">
          <mxGeometry width="50" height="50" relative="1" as="geometry">
            <mxPoint x="50" y="110" as="sourcePoint" />
            <mxPoint x="100" y="110" as="targetPoint" />
          </mxGeometry>
        </mxCell>
        <mxCell id="9qxclZ9WIJRdPY8J6UA6-107" value="" style="rounded=0;whiteSpace=wrap;html=1;fillColor=#E6E6E6;" vertex="1" parent="1">
          <mxGeometry x="90" y="30" width="10" height="10" as="geometry" />
        </mxCell>
        <mxCell id="9qxclZ9WIJRdPY8J6UA6-52" value="" style="endArrow=none;html=1;rounded=0;" edge="1" parent="1">
          <mxGeometry width="50" height="50" relative="1" as="geometry">
            <mxPoint x="40" y="-20" as="sourcePoint" />
            <mxPoint x="100" y="40" as="targetPoint" />
          </mxGeometry>
        </mxCell>
        <mxCell id="9qxclZ9WIJRdPY8J6UA6-108" value="" style="endArrow=none;html=1;rounded=0;" edge="1" parent="1">
          <mxGeometry width="50" height="50" relative="1" as="geometry">
            <mxPoint x="90" y="340" as="sourcePoint" />
            <mxPoint x="150" y="340" as="targetPoint" />
          </mxGeometry>
        </mxCell>
        <mxCell id="9qxclZ9WIJRdPY8J6UA6-110" value="" style="rounded=0;whiteSpace=wrap;html=1;fillColor=#E6E6E6;" vertex="1" parent="1">
          <mxGeometry x="100" y="30" width="10" height="10" as="geometry" />
        </mxCell>
        <mxCell id="9qxclZ9WIJRdPY8J6UA6-113" value="" style="endArrow=none;html=1;rounded=0;" edge="1" parent="1">
          <mxGeometry width="50" height="50" relative="1" as="geometry">
            <mxPoint x="100" y="110" as="sourcePoint" />
            <mxPoint x="110" y="120" as="targetPoint" />
          </mxGeometry>
        </mxCell>
        <mxCell id="9qxclZ9WIJRdPY8J6UA6-115" value="4" style="text;html=1;strokeColor=none;fillColor=none;align=center;verticalAlign=middle;whiteSpace=wrap;rounded=0;" vertex="1" parent="1">
          <mxGeometry x="65" y="290" width="30" height="10" as="geometry" />
        </mxCell>
        <mxCell id="9qxclZ9WIJRdPY8J6UA6-116" value="8" style="text;html=1;strokeColor=none;fillColor=none;align=center;verticalAlign=middle;whiteSpace=wrap;rounded=0;" vertex="1" parent="1">
          <mxGeometry x="105" y="290" width="30" height="10" as="geometry" />
        </mxCell>
        <mxCell id="9qxclZ9WIJRdPY8J6UA6-117" value="12" style="text;html=1;strokeColor=none;fillColor=none;align=center;verticalAlign=middle;whiteSpace=wrap;rounded=0;" vertex="1" parent="1">
          <mxGeometry x="145" y="290" width="30" height="10" as="geometry" />
        </mxCell>
        <mxCell id="9qxclZ9WIJRdPY8J6UA6-118" value="20" style="text;html=1;strokeColor=none;fillColor=none;align=center;verticalAlign=middle;whiteSpace=wrap;rounded=0;" vertex="1" parent="1">
          <mxGeometry x="230" y="290" width="20" height="10" as="geometry" />
        </mxCell>
        <mxCell id="9qxclZ9WIJRdPY8J6UA6-119" value="24" style="text;html=1;strokeColor=none;fillColor=none;align=center;verticalAlign=middle;whiteSpace=wrap;rounded=0;" vertex="1" parent="1">
          <mxGeometry x="270" y="290" width="20" height="10" as="geometry" />
        </mxCell>
        <mxCell id="9qxclZ9WIJRdPY8J6UA6-120" value="16" style="text;html=1;strokeColor=none;fillColor=none;align=center;verticalAlign=middle;whiteSpace=wrap;rounded=0;" vertex="1" parent="1">
          <mxGeometry x="190" y="290" width="20" height="10" as="geometry" />
        </mxCell>
        <mxCell id="9qxclZ9WIJRdPY8J6UA6-121" value="4" style="text;html=1;strokeColor=none;fillColor=none;align=center;verticalAlign=middle;whiteSpace=wrap;rounded=0;" vertex="1" parent="1">
          <mxGeometry x="65" y="210" width="30" height="10" as="geometry" />
        </mxCell>
        <mxCell id="9qxclZ9WIJRdPY8J6UA6-122" value="8" style="text;html=1;strokeColor=none;fillColor=none;align=center;verticalAlign=middle;whiteSpace=wrap;rounded=0;" vertex="1" parent="1">
          <mxGeometry x="105" y="210" width="30" height="10" as="geometry" />
        </mxCell>
        <mxCell id="9qxclZ9WIJRdPY8J6UA6-123" value="12" style="text;html=1;strokeColor=none;fillColor=none;align=center;verticalAlign=middle;whiteSpace=wrap;rounded=0;" vertex="1" parent="1">
          <mxGeometry x="145" y="210" width="30" height="10" as="geometry" />
        </mxCell>
        <mxCell id="9qxclZ9WIJRdPY8J6UA6-124" value="20" style="text;html=1;strokeColor=none;fillColor=none;align=center;verticalAlign=middle;whiteSpace=wrap;rounded=0;" vertex="1" parent="1">
          <mxGeometry x="230" y="210" width="20" height="10" as="geometry" />
        </mxCell>
        <mxCell id="9qxclZ9WIJRdPY8J6UA6-125" value="24" style="text;html=1;strokeColor=none;fillColor=none;align=center;verticalAlign=middle;whiteSpace=wrap;rounded=0;" vertex="1" parent="1">
          <mxGeometry x="270" y="210" width="20" height="10" as="geometry" />
        </mxCell>
        <mxCell id="9qxclZ9WIJRdPY8J6UA6-126" value="16" style="text;html=1;strokeColor=none;fillColor=none;align=center;verticalAlign=middle;whiteSpace=wrap;rounded=0;" vertex="1" parent="1">
          <mxGeometry x="190" y="210" width="20" height="10" as="geometry" />
        </mxCell>
        <mxCell id="9qxclZ9WIJRdPY8J6UA6-127" value="4" style="text;html=1;strokeColor=none;fillColor=none;align=center;verticalAlign=middle;whiteSpace=wrap;rounded=0;" vertex="1" parent="1">
          <mxGeometry x="65" y="125" width="30" height="10" as="geometry" />
        </mxCell>
        <mxCell id="9qxclZ9WIJRdPY8J6UA6-128" value="8" style="text;html=1;strokeColor=none;fillColor=none;align=center;verticalAlign=middle;whiteSpace=wrap;rounded=0;" vertex="1" parent="1">
          <mxGeometry x="105" y="125" width="30" height="10" as="geometry" />
        </mxCell>
        <mxCell id="9qxclZ9WIJRdPY8J6UA6-129" value="12" style="text;html=1;strokeColor=none;fillColor=none;align=center;verticalAlign=middle;whiteSpace=wrap;rounded=0;" vertex="1" parent="1">
          <mxGeometry x="145" y="125" width="30" height="10" as="geometry" />
        </mxCell>
        <mxCell id="9qxclZ9WIJRdPY8J6UA6-130" value="20" style="text;html=1;strokeColor=none;fillColor=none;align=center;verticalAlign=middle;whiteSpace=wrap;rounded=0;" vertex="1" parent="1">
          <mxGeometry x="230" y="125" width="20" height="10" as="geometry" />
        </mxCell>
        <mxCell id="9qxclZ9WIJRdPY8J6UA6-131" value="24" style="text;html=1;strokeColor=none;fillColor=none;align=center;verticalAlign=middle;whiteSpace=wrap;rounded=0;" vertex="1" parent="1">
          <mxGeometry x="270" y="125" width="20" height="10" as="geometry" />
        </mxCell>
        <mxCell id="9qxclZ9WIJRdPY8J6UA6-132" value="16" style="text;html=1;strokeColor=none;fillColor=none;align=center;verticalAlign=middle;whiteSpace=wrap;rounded=0;" vertex="1" parent="1">
          <mxGeometry x="190" y="125" width="20" height="10" as="geometry" />
        </mxCell>
        <mxCell id="9qxclZ9WIJRdPY8J6UA6-133" value="4" style="text;html=1;strokeColor=none;fillColor=none;align=center;verticalAlign=middle;whiteSpace=wrap;rounded=0;" vertex="1" parent="1">
          <mxGeometry x="65" y="50" width="30" height="10" as="geometry" />
        </mxCell>
        <mxCell id="9qxclZ9WIJRdPY8J6UA6-134" value="8" style="text;html=1;strokeColor=none;fillColor=none;align=center;verticalAlign=middle;whiteSpace=wrap;rounded=0;" vertex="1" parent="1">
          <mxGeometry x="105" y="50" width="30" height="10" as="geometry" />
        </mxCell>
        <mxCell id="9qxclZ9WIJRdPY8J6UA6-135" value="12" style="text;html=1;strokeColor=none;fillColor=none;align=center;verticalAlign=middle;whiteSpace=wrap;rounded=0;" vertex="1" parent="1">
          <mxGeometry x="145" y="50" width="30" height="10" as="geometry" />
        </mxCell>
        <mxCell id="9qxclZ9WIJRdPY8J6UA6-136" value="20" style="text;html=1;strokeColor=none;fillColor=none;align=center;verticalAlign=middle;whiteSpace=wrap;rounded=0;" vertex="1" parent="1">
          <mxGeometry x="230" y="50" width="20" height="10" as="geometry" />
        </mxCell>
        <mxCell id="9qxclZ9WIJRdPY8J6UA6-137" value="24" style="text;html=1;strokeColor=none;fillColor=none;align=center;verticalAlign=middle;whiteSpace=wrap;rounded=0;" vertex="1" parent="1">
          <mxGeometry x="270" y="50" width="20" height="10" as="geometry" />
        </mxCell>
        <mxCell id="9qxclZ9WIJRdPY8J6UA6-138" value="16" style="text;html=1;strokeColor=none;fillColor=none;align=center;verticalAlign=middle;whiteSpace=wrap;rounded=0;" vertex="1" parent="1">
          <mxGeometry x="190" y="50" width="20" height="10" as="geometry" />
        </mxCell>
        <mxCell id="9qxclZ9WIJRdPY8J6UA6-139" value="" style="rounded=0;whiteSpace=wrap;html=1;fillColor=#E6E6E6;" vertex="1" parent="1">
          <mxGeometry x="110" y="30" width="10" height="10" as="geometry" />
        </mxCell>
        <mxCell id="9qxclZ9WIJRdPY8J6UA6-140" value="" style="rounded=0;whiteSpace=wrap;html=1;fillColor=#E6E6E6;" vertex="1" parent="1">
          <mxGeometry x="120" y="30" width="10" height="10" as="geometry" />
        </mxCell>
        <mxCell id="9qxclZ9WIJRdPY8J6UA6-141" value="" style="endArrow=none;html=1;rounded=0;" edge="1" parent="1">
          <mxGeometry width="50" height="50" relative="1" as="geometry">
            <mxPoint x="110" y="260" as="sourcePoint" />
            <mxPoint x="130" y="280" as="targetPoint" />
          </mxGeometry>
        </mxCell>
        <mxCell id="9qxclZ9WIJRdPY8J6UA6-142" value="" style="rounded=0;whiteSpace=wrap;html=1;fillColor=#E6E6E6;" vertex="1" parent="1">
          <mxGeometry x="130" y="350" width="10" height="10" as="geometry" />
        </mxCell>
        <mxCell id="9qxclZ9WIJRdPY8J6UA6-144" value="" style="rounded=0;whiteSpace=wrap;html=1;fillColor=#E6E6E6;" vertex="1" parent="1">
          <mxGeometry x="140" y="350" width="10" height="10" as="geometry" />
        </mxCell>
        <mxCell id="9qxclZ9WIJRdPY8J6UA6-147" value="4" style="text;html=1;strokeColor=none;fillColor=none;align=center;verticalAlign=middle;whiteSpace=wrap;rounded=0;" vertex="1" parent="1">
          <mxGeometry x="65" y="450" width="30" height="10" as="geometry" />
        </mxCell>
        <mxCell id="9qxclZ9WIJRdPY8J6UA6-148" value="8" style="text;html=1;strokeColor=none;fillColor=none;align=center;verticalAlign=middle;whiteSpace=wrap;rounded=0;" vertex="1" parent="1">
          <mxGeometry x="105" y="450" width="30" height="10" as="geometry" />
        </mxCell>
        <mxCell id="9qxclZ9WIJRdPY8J6UA6-149" value="12" style="text;html=1;strokeColor=none;fillColor=none;align=center;verticalAlign=middle;whiteSpace=wrap;rounded=0;" vertex="1" parent="1">
          <mxGeometry x="145" y="450" width="30" height="10" as="geometry" />
        </mxCell>
        <mxCell id="9qxclZ9WIJRdPY8J6UA6-150" value="20" style="text;html=1;strokeColor=none;fillColor=none;align=center;verticalAlign=middle;whiteSpace=wrap;rounded=0;" vertex="1" parent="1">
          <mxGeometry x="230" y="450" width="20" height="10" as="geometry" />
        </mxCell>
        <mxCell id="9qxclZ9WIJRdPY8J6UA6-151" value="24" style="text;html=1;strokeColor=none;fillColor=none;align=center;verticalAlign=middle;whiteSpace=wrap;rounded=0;" vertex="1" parent="1">
          <mxGeometry x="270" y="450" width="20" height="10" as="geometry" />
        </mxCell>
        <mxCell id="9qxclZ9WIJRdPY8J6UA6-152" value="16" style="text;html=1;strokeColor=none;fillColor=none;align=center;verticalAlign=middle;whiteSpace=wrap;rounded=0;" vertex="1" parent="1">
          <mxGeometry x="190" y="450" width="20" height="10" as="geometry" />
        </mxCell>
        <mxCell id="9qxclZ9WIJRdPY8J6UA6-153" value="" style="rounded=0;whiteSpace=wrap;html=1;fillColor=#E6E6E6;" vertex="1" parent="1">
          <mxGeometry x="150" y="430" width="10" height="10" as="geometry" />
        </mxCell>
        <mxCell id="9qxclZ9WIJRdPY8J6UA6-154" value="" style="endArrow=none;html=1;rounded=0;exitX=0;exitY=1;exitDx=0;exitDy=0;entryX=1;entryY=0;entryDx=0;entryDy=0;" edge="1" parent="1" source="9qxclZ9WIJRdPY8J6UA6-153" target="9qxclZ9WIJRdPY8J6UA6-153">
          <mxGeometry width="50" height="50" relative="1" as="geometry">
            <mxPoint x="250" y="400" as="sourcePoint" />
            <mxPoint x="300" y="350" as="targetPoint" />
          </mxGeometry>
        </mxCell>
        <mxCell id="9qxclZ9WIJRdPY8J6UA6-155" value="" style="endArrow=none;html=1;rounded=0;" edge="1" parent="1">
          <mxGeometry width="50" height="50" relative="1" as="geometry">
            <mxPoint x="150" y="340" as="sourcePoint" />
            <mxPoint x="170" y="360" as="targetPoint" />
          </mxGeometry>
        </mxCell>
        <mxCell id="9qxclZ9WIJRdPY8J6UA6-156" value="" style="endArrow=none;html=1;rounded=0;" edge="1" parent="1">
          <mxGeometry width="50" height="50" relative="1" as="geometry">
            <mxPoint x="160" y="-20" as="sourcePoint" />
            <mxPoint x="170" y="-20" as="targetPoint" />
          </mxGeometry>
        </mxCell>
        <mxCell id="9qxclZ9WIJRdPY8J6UA6-157" value="" style="rounded=0;whiteSpace=wrap;html=1;fillColor=#E6E6E6;" vertex="1" parent="1">
          <mxGeometry x="160" y="430" width="10" height="10" as="geometry" />
        </mxCell>
        <mxCell id="9qxclZ9WIJRdPY8J6UA6-159" value="" style="endArrow=none;html=1;rounded=0;" edge="1" parent="1">
          <mxGeometry width="50" height="50" relative="1" as="geometry">
            <mxPoint x="160" y="430" as="sourcePoint" />
            <mxPoint x="170" y="420" as="targetPoint" />
          </mxGeometry>
        </mxCell>
        <mxCell id="9qxclZ9WIJRdPY8J6UA6-160" value="" style="rounded=0;whiteSpace=wrap;html=1;fillColor=#E6E6E6;" vertex="1" parent="1">
          <mxGeometry x="170" y="30" width="10" height="10" as="geometry" />
        </mxCell>
        <mxCell id="9qxclZ9WIJRdPY8J6UA6-162" value="" style="endArrow=none;html=1;rounded=0;" edge="1" parent="1">
          <mxGeometry width="50" height="50" relative="1" as="geometry">
            <mxPoint x="170" y="420" as="sourcePoint" />
            <mxPoint x="180" y="420" as="targetPoint" />
          </mxGeometry>
        </mxCell>
        <mxCell id="9qxclZ9WIJRdPY8J6UA6-163" value="" style="endArrow=none;html=1;rounded=0;" edge="1" parent="1">
          <mxGeometry width="50" height="50" relative="1" as="geometry">
            <mxPoint x="170" y="-20" as="sourcePoint" />
            <mxPoint x="230" y="40" as="targetPoint" />
          </mxGeometry>
        </mxCell>
        <mxCell id="9qxclZ9WIJRdPY8J6UA6-164" value="" style="rounded=0;whiteSpace=wrap;html=1;fillColor=#E6E6E6;" vertex="1" parent="1">
          <mxGeometry x="180" y="430" width="10" height="10" as="geometry" />
        </mxCell>
        <mxCell id="9qxclZ9WIJRdPY8J6UA6-166" value="" style="endArrow=none;html=1;rounded=0;" edge="1" parent="1">
          <mxGeometry width="50" height="50" relative="1" as="geometry">
            <mxPoint x="180" y="420" as="sourcePoint" />
            <mxPoint x="190" y="410" as="targetPoint" />
          </mxGeometry>
        </mxCell>
        <mxCell id="9qxclZ9WIJRdPY8J6UA6-167" value="" style="rounded=0;whiteSpace=wrap;html=1;fillColor=#E6E6E6;" vertex="1" parent="1">
          <mxGeometry x="190" y="110" width="10" height="10" as="geometry" />
        </mxCell>
        <mxCell id="9qxclZ9WIJRdPY8J6UA6-168" value="" style="endArrow=none;html=1;rounded=0;exitX=0;exitY=1;exitDx=0;exitDy=0;entryX=1;entryY=0;entryDx=0;entryDy=0;" edge="1" parent="1" source="9qxclZ9WIJRdPY8J6UA6-167" target="9qxclZ9WIJRdPY8J6UA6-167">
          <mxGeometry width="50" height="50" relative="1" as="geometry">
            <mxPoint x="130" y="160" as="sourcePoint" />
            <mxPoint x="180" y="110" as="targetPoint" />
          </mxGeometry>
        </mxCell>
        <mxCell id="9qxclZ9WIJRdPY8J6UA6-170" value="" style="endArrow=none;html=1;rounded=0;" edge="1" parent="1">
          <mxGeometry width="50" height="50" relative="1" as="geometry">
            <mxPoint x="190" y="410" as="sourcePoint" />
            <mxPoint x="260" y="410" as="targetPoint" />
          </mxGeometry>
        </mxCell>
        <mxCell id="9qxclZ9WIJRdPY8J6UA6-171" value="" style="rounded=0;whiteSpace=wrap;html=1;fillColor=#E6E6E6;" vertex="1" parent="1">
          <mxGeometry x="200" y="270" width="10" height="10" as="geometry" />
        </mxCell>
        <mxCell id="9qxclZ9WIJRdPY8J6UA6-172" value="" style="rounded=0;whiteSpace=wrap;html=1;fillColor=#E6E6E6;" vertex="1" parent="1">
          <mxGeometry x="210" y="270" width="10" height="10" as="geometry" />
        </mxCell>
        <mxCell id="9qxclZ9WIJRdPY8J6UA6-174" value="" style="endArrow=none;html=1;rounded=0;exitX=0;exitY=1;exitDx=0;exitDy=0;" edge="1" parent="1" source="9qxclZ9WIJRdPY8J6UA6-171">
          <mxGeometry width="50" height="50" relative="1" as="geometry">
            <mxPoint x="150" y="290" as="sourcePoint" />
            <mxPoint x="220" y="260" as="targetPoint" />
          </mxGeometry>
        </mxCell>
        <mxCell id="9qxclZ9WIJRdPY8J6UA6-175" value="" style="endArrow=none;html=1;rounded=0;exitX=1;exitY=0;exitDx=0;exitDy=0;" edge="1" parent="1" source="9qxclZ9WIJRdPY8J6UA6-167">
          <mxGeometry width="50" height="50" relative="1" as="geometry">
            <mxPoint x="150" y="140" as="sourcePoint" />
            <mxPoint x="230" y="110" as="targetPoint" />
          </mxGeometry>
        </mxCell>
        <mxCell id="9qxclZ9WIJRdPY8J6UA6-176" value="" style="rounded=0;whiteSpace=wrap;html=1;fillColor=#E6E6E6;" vertex="1" parent="1">
          <mxGeometry x="220" y="190" width="10" height="10" as="geometry" />
        </mxCell>
        <mxCell id="9qxclZ9WIJRdPY8J6UA6-178" value="" style="rounded=0;whiteSpace=wrap;html=1;fillColor=#E6E6E6;" vertex="1" parent="1">
          <mxGeometry x="230" y="190" width="10" height="10" as="geometry" />
        </mxCell>
        <mxCell id="9qxclZ9WIJRdPY8J6UA6-180" value="" style="rounded=0;whiteSpace=wrap;html=1;fillColor=#E6E6E6;" vertex="1" parent="1">
          <mxGeometry x="240" y="190" width="10" height="10" as="geometry" />
        </mxCell>
        <mxCell id="9qxclZ9WIJRdPY8J6UA6-181" value="" style="rounded=0;whiteSpace=wrap;html=1;fillColor=#E6E6E6;" vertex="1" parent="1">
          <mxGeometry x="250" y="190" width="10" height="10" as="geometry" />
        </mxCell>
        <mxCell id="9qxclZ9WIJRdPY8J6UA6-182" value="" style="rounded=0;whiteSpace=wrap;html=1;fillColor=#E6E6E6;" vertex="1" parent="1">
          <mxGeometry x="260" y="190" width="10" height="10" as="geometry" />
        </mxCell>
        <mxCell id="9qxclZ9WIJRdPY8J6UA6-183" value="" style="endArrow=none;html=1;rounded=0;exitX=0;exitY=1;exitDx=0;exitDy=0;" edge="1" parent="1" source="9qxclZ9WIJRdPY8J6UA6-176">
          <mxGeometry width="50" height="50" relative="1" as="geometry">
            <mxPoint x="150" y="240" as="sourcePoint" />
            <mxPoint x="270" y="150" as="targetPoint" />
          </mxGeometry>
        </mxCell>
        <mxCell id="9qxclZ9WIJRdPY8J6UA6-184" value="" style="endArrow=none;html=1;rounded=0;" edge="1" parent="1">
          <mxGeometry width="50" height="50" relative="1" as="geometry">
            <mxPoint x="220" y="260" as="sourcePoint" />
            <mxPoint x="240" y="260" as="targetPoint" />
          </mxGeometry>
        </mxCell>
        <mxCell id="9qxclZ9WIJRdPY8J6UA6-185" value="" style="endArrow=none;html=1;rounded=0;" edge="1" parent="1">
          <mxGeometry width="50" height="50" relative="1" as="geometry">
            <mxPoint x="230" y="110" as="sourcePoint" />
            <mxPoint x="240" y="120" as="targetPoint" />
          </mxGeometry>
        </mxCell>
        <mxCell id="9qxclZ9WIJRdPY8J6UA6-187" value="" style="endArrow=none;html=1;rounded=0;" edge="1" parent="1">
          <mxGeometry width="50" height="50" relative="1" as="geometry">
            <mxPoint x="240" y="260" as="sourcePoint" />
            <mxPoint x="260" y="280" as="targetPoint" />
          </mxGeometry>
        </mxCell>
        <mxCell id="9qxclZ9WIJRdPY8J6UA6-188" value="" style="endArrow=none;html=1;rounded=0;" edge="1" parent="1">
          <mxGeometry width="50" height="50" relative="1" as="geometry">
            <mxPoint x="260" y="410" as="sourcePoint" />
            <mxPoint x="280" y="430" as="targetPoint" />
          </mxGeometry>
        </mxCell>
        <mxCell id="9qxclZ9WIJRdPY8J6UA6-189" value="" style="rounded=0;whiteSpace=wrap;html=1;fillColor=#E6E6E6;" vertex="1" parent="1">
          <mxGeometry x="270" y="350" width="10" height="10" as="geometry" />
        </mxCell>
        <mxCell id="9qxclZ9WIJRdPY8J6UA6-190" value="" style="endArrow=none;html=1;rounded=0;exitX=0;exitY=1;exitDx=0;exitDy=0;" edge="1" parent="1" source="9qxclZ9WIJRdPY8J6UA6-189">
          <mxGeometry width="50" height="50" relative="1" as="geometry">
            <mxPoint x="150" y="390" as="sourcePoint" />
            <mxPoint x="310" y="320" as="targetPoint" />
          </mxGeometry>
        </mxCell>
        <mxCell id="9qxclZ9WIJRdPY8J6UA6-191" value="" style="endArrow=none;html=1;rounded=0;" edge="1" parent="1">
          <mxGeometry width="50" height="50" relative="1" as="geometry">
            <mxPoint x="270" y="150" as="sourcePoint" />
            <mxPoint x="280" y="150" as="targetPoint" />
          </mxGeometry>
        </mxCell>
        <mxCell id="9qxclZ9WIJRdPY8J6UA6-193" value="" style="endArrow=none;html=1;rounded=0;" edge="1" parent="1">
          <mxGeometry width="50" height="50" relative="1" as="geometry">
            <mxPoint x="280" y="150" as="sourcePoint" />
            <mxPoint x="280" y="200" as="targetPoint" />
          </mxGeometry>
        </mxCell>
        <mxCell id="9qxclZ9WIJRdPY8J6UA6-225" value="28" style="text;html=1;strokeColor=none;fillColor=none;align=center;verticalAlign=middle;whiteSpace=wrap;rounded=0;" vertex="1" parent="1">
          <mxGeometry x="310" y="125" width="20" height="10" as="geometry" />
        </mxCell>
        <mxCell id="9qxclZ9WIJRdPY8J6UA6-226" value="32" style="text;html=1;strokeColor=none;fillColor=none;align=center;verticalAlign=middle;whiteSpace=wrap;rounded=0;" vertex="1" parent="1">
          <mxGeometry x="350" y="125" width="20" height="10" as="geometry" />
        </mxCell>
        <mxCell id="9qxclZ9WIJRdPY8J6UA6-227" value="36" style="text;html=1;strokeColor=none;fillColor=none;align=center;verticalAlign=middle;whiteSpace=wrap;rounded=0;" vertex="1" parent="1">
          <mxGeometry x="390" y="125" width="20" height="10" as="geometry" />
        </mxCell>
        <mxCell id="9qxclZ9WIJRdPY8J6UA6-228" value="44" style="text;html=1;strokeColor=none;fillColor=none;align=center;verticalAlign=middle;whiteSpace=wrap;rounded=0;" vertex="1" parent="1">
          <mxGeometry x="470" y="125" width="20" height="10" as="geometry" />
        </mxCell>
        <mxCell id="9qxclZ9WIJRdPY8J6UA6-229" value="48" style="text;html=1;strokeColor=none;fillColor=none;align=center;verticalAlign=middle;whiteSpace=wrap;rounded=0;" vertex="1" parent="1">
          <mxGeometry x="510" y="125" width="20" height="10" as="geometry" />
        </mxCell>
        <mxCell id="9qxclZ9WIJRdPY8J6UA6-230" value="40" style="text;html=1;strokeColor=none;fillColor=none;align=center;verticalAlign=middle;whiteSpace=wrap;rounded=0;" vertex="1" parent="1">
          <mxGeometry x="430" y="125" width="20" height="10" as="geometry" />
        </mxCell>
        <mxCell id="9qxclZ9WIJRdPY8J6UA6-237" value="" style="endArrow=classic;html=1;rounded=0;entryX=0.5;entryY=0;entryDx=0;entryDy=0;" edge="1" parent="1">
          <mxGeometry width="50" height="50" relative="1" as="geometry">
            <mxPoint x="400" y="100" as="sourcePoint" />
            <mxPoint x="400" y="120" as="targetPoint" />
          </mxGeometry>
        </mxCell>
        <mxCell id="9qxclZ9WIJRdPY8J6UA6-238" value="28" style="text;html=1;strokeColor=none;fillColor=none;align=center;verticalAlign=middle;whiteSpace=wrap;rounded=0;" vertex="1" parent="1">
          <mxGeometry x="310" y="210" width="20" height="10" as="geometry" />
        </mxCell>
        <mxCell id="9qxclZ9WIJRdPY8J6UA6-239" value="32" style="text;html=1;strokeColor=none;fillColor=none;align=center;verticalAlign=middle;whiteSpace=wrap;rounded=0;" vertex="1" parent="1">
          <mxGeometry x="350" y="210" width="20" height="10" as="geometry" />
        </mxCell>
        <mxCell id="9qxclZ9WIJRdPY8J6UA6-240" value="36" style="text;html=1;strokeColor=none;fillColor=none;align=center;verticalAlign=middle;whiteSpace=wrap;rounded=0;" vertex="1" parent="1">
          <mxGeometry x="390" y="210" width="20" height="10" as="geometry" />
        </mxCell>
        <mxCell id="9qxclZ9WIJRdPY8J6UA6-241" value="44" style="text;html=1;strokeColor=none;fillColor=none;align=center;verticalAlign=middle;whiteSpace=wrap;rounded=0;" vertex="1" parent="1">
          <mxGeometry x="470" y="210" width="20" height="10" as="geometry" />
        </mxCell>
        <mxCell id="9qxclZ9WIJRdPY8J6UA6-242" value="48" style="text;html=1;strokeColor=none;fillColor=none;align=center;verticalAlign=middle;whiteSpace=wrap;rounded=0;" vertex="1" parent="1">
          <mxGeometry x="510" y="210" width="20" height="10" as="geometry" />
        </mxCell>
        <mxCell id="9qxclZ9WIJRdPY8J6UA6-243" value="40" style="text;html=1;strokeColor=none;fillColor=none;align=center;verticalAlign=middle;whiteSpace=wrap;rounded=0;" vertex="1" parent="1">
          <mxGeometry x="430" y="210" width="20" height="10" as="geometry" />
        </mxCell>
        <mxCell id="9qxclZ9WIJRdPY8J6UA6-244" value="28" style="text;html=1;strokeColor=none;fillColor=none;align=center;verticalAlign=middle;whiteSpace=wrap;rounded=0;" vertex="1" parent="1">
          <mxGeometry x="310" y="290" width="20" height="10" as="geometry" />
        </mxCell>
        <mxCell id="9qxclZ9WIJRdPY8J6UA6-245" value="32" style="text;html=1;strokeColor=none;fillColor=none;align=center;verticalAlign=middle;whiteSpace=wrap;rounded=0;" vertex="1" parent="1">
          <mxGeometry x="350" y="290" width="20" height="10" as="geometry" />
        </mxCell>
        <mxCell id="9qxclZ9WIJRdPY8J6UA6-246" value="36" style="text;html=1;strokeColor=none;fillColor=none;align=center;verticalAlign=middle;whiteSpace=wrap;rounded=0;" vertex="1" parent="1">
          <mxGeometry x="390" y="290" width="20" height="10" as="geometry" />
        </mxCell>
        <mxCell id="9qxclZ9WIJRdPY8J6UA6-247" value="44" style="text;html=1;strokeColor=none;fillColor=none;align=center;verticalAlign=middle;whiteSpace=wrap;rounded=0;" vertex="1" parent="1">
          <mxGeometry x="470" y="290" width="20" height="10" as="geometry" />
        </mxCell>
        <mxCell id="9qxclZ9WIJRdPY8J6UA6-248" value="48" style="text;html=1;strokeColor=none;fillColor=none;align=center;verticalAlign=middle;whiteSpace=wrap;rounded=0;" vertex="1" parent="1">
          <mxGeometry x="510" y="290" width="20" height="10" as="geometry" />
        </mxCell>
        <mxCell id="9qxclZ9WIJRdPY8J6UA6-249" value="40" style="text;html=1;strokeColor=none;fillColor=none;align=center;verticalAlign=middle;whiteSpace=wrap;rounded=0;" vertex="1" parent="1">
          <mxGeometry x="430" y="290" width="20" height="10" as="geometry" />
        </mxCell>
        <mxCell id="9qxclZ9WIJRdPY8J6UA6-250" value="28" style="text;html=1;strokeColor=none;fillColor=none;align=center;verticalAlign=middle;whiteSpace=wrap;rounded=0;" vertex="1" parent="1">
          <mxGeometry x="310" y="370" width="20" height="10" as="geometry" />
        </mxCell>
        <mxCell id="9qxclZ9WIJRdPY8J6UA6-251" value="32" style="text;html=1;strokeColor=none;fillColor=none;align=center;verticalAlign=middle;whiteSpace=wrap;rounded=0;" vertex="1" parent="1">
          <mxGeometry x="350" y="370" width="20" height="10" as="geometry" />
        </mxCell>
        <mxCell id="9qxclZ9WIJRdPY8J6UA6-252" value="36" style="text;html=1;strokeColor=none;fillColor=none;align=center;verticalAlign=middle;whiteSpace=wrap;rounded=0;" vertex="1" parent="1">
          <mxGeometry x="390" y="370" width="20" height="10" as="geometry" />
        </mxCell>
        <mxCell id="9qxclZ9WIJRdPY8J6UA6-253" value="44" style="text;html=1;strokeColor=none;fillColor=none;align=center;verticalAlign=middle;whiteSpace=wrap;rounded=0;" vertex="1" parent="1">
          <mxGeometry x="470" y="370" width="20" height="10" as="geometry" />
        </mxCell>
        <mxCell id="9qxclZ9WIJRdPY8J6UA6-254" value="48" style="text;html=1;strokeColor=none;fillColor=none;align=center;verticalAlign=middle;whiteSpace=wrap;rounded=0;" vertex="1" parent="1">
          <mxGeometry x="510" y="370" width="20" height="10" as="geometry" />
        </mxCell>
        <mxCell id="9qxclZ9WIJRdPY8J6UA6-255" value="40" style="text;html=1;strokeColor=none;fillColor=none;align=center;verticalAlign=middle;whiteSpace=wrap;rounded=0;" vertex="1" parent="1">
          <mxGeometry x="430" y="370" width="20" height="10" as="geometry" />
        </mxCell>
        <mxCell id="9qxclZ9WIJRdPY8J6UA6-256" value="28" style="text;html=1;strokeColor=none;fillColor=none;align=center;verticalAlign=middle;whiteSpace=wrap;rounded=0;" vertex="1" parent="1">
          <mxGeometry x="310" y="450" width="20" height="10" as="geometry" />
        </mxCell>
        <mxCell id="9qxclZ9WIJRdPY8J6UA6-257" value="32" style="text;html=1;strokeColor=none;fillColor=none;align=center;verticalAlign=middle;whiteSpace=wrap;rounded=0;" vertex="1" parent="1">
          <mxGeometry x="350" y="450" width="20" height="10" as="geometry" />
        </mxCell>
        <mxCell id="9qxclZ9WIJRdPY8J6UA6-258" value="36" style="text;html=1;strokeColor=none;fillColor=none;align=center;verticalAlign=middle;whiteSpace=wrap;rounded=0;" vertex="1" parent="1">
          <mxGeometry x="390" y="450" width="20" height="10" as="geometry" />
        </mxCell>
        <mxCell id="9qxclZ9WIJRdPY8J6UA6-259" value="44" style="text;html=1;strokeColor=none;fillColor=none;align=center;verticalAlign=middle;whiteSpace=wrap;rounded=0;" vertex="1" parent="1">
          <mxGeometry x="470" y="450" width="20" height="10" as="geometry" />
        </mxCell>
        <mxCell id="9qxclZ9WIJRdPY8J6UA6-260" value="48" style="text;html=1;strokeColor=none;fillColor=none;align=center;verticalAlign=middle;whiteSpace=wrap;rounded=0;" vertex="1" parent="1">
          <mxGeometry x="510" y="450" width="20" height="10" as="geometry" />
        </mxCell>
        <mxCell id="9qxclZ9WIJRdPY8J6UA6-261" value="40" style="text;html=1;strokeColor=none;fillColor=none;align=center;verticalAlign=middle;whiteSpace=wrap;rounded=0;" vertex="1" parent="1">
          <mxGeometry x="430" y="450" width="20" height="10" as="geometry" />
        </mxCell>
        <mxCell id="9qxclZ9WIJRdPY8J6UA6-262" value="28" style="text;html=1;strokeColor=none;fillColor=none;align=center;verticalAlign=middle;whiteSpace=wrap;rounded=0;" vertex="1" parent="1">
          <mxGeometry x="310" y="50" width="20" height="10" as="geometry" />
        </mxCell>
        <mxCell id="9qxclZ9WIJRdPY8J6UA6-263" value="32" style="text;html=1;strokeColor=none;fillColor=none;align=center;verticalAlign=middle;whiteSpace=wrap;rounded=0;" vertex="1" parent="1">
          <mxGeometry x="350" y="50" width="20" height="10" as="geometry" />
        </mxCell>
        <mxCell id="9qxclZ9WIJRdPY8J6UA6-264" value="36" style="text;html=1;strokeColor=none;fillColor=none;align=center;verticalAlign=middle;whiteSpace=wrap;rounded=0;" vertex="1" parent="1">
          <mxGeometry x="390" y="50" width="20" height="10" as="geometry" />
        </mxCell>
        <mxCell id="9qxclZ9WIJRdPY8J6UA6-265" value="44" style="text;html=1;strokeColor=none;fillColor=none;align=center;verticalAlign=middle;whiteSpace=wrap;rounded=0;" vertex="1" parent="1">
          <mxGeometry x="470" y="50" width="20" height="10" as="geometry" />
        </mxCell>
        <mxCell id="9qxclZ9WIJRdPY8J6UA6-266" value="48" style="text;html=1;strokeColor=none;fillColor=none;align=center;verticalAlign=middle;whiteSpace=wrap;rounded=0;" vertex="1" parent="1">
          <mxGeometry x="510" y="50" width="20" height="10" as="geometry" />
        </mxCell>
        <mxCell id="9qxclZ9WIJRdPY8J6UA6-267" value="40" style="text;html=1;strokeColor=none;fillColor=none;align=center;verticalAlign=middle;whiteSpace=wrap;rounded=0;" vertex="1" parent="1">
          <mxGeometry x="430" y="50" width="20" height="10" as="geometry" />
        </mxCell>
        <mxCell id="9qxclZ9WIJRdPY8J6UA6-268" value="" style="endArrow=classic;html=1;rounded=0;entryX=0.5;entryY=0;entryDx=0;entryDy=0;" edge="1" parent="1">
          <mxGeometry width="50" height="50" relative="1" as="geometry">
            <mxPoint x="399.8" y="260" as="sourcePoint" />
            <mxPoint x="399.8" y="280" as="targetPoint" />
          </mxGeometry>
        </mxCell>
        <mxCell id="9qxclZ9WIJRdPY8J6UA6-269" value="" style="endArrow=classic;html=1;rounded=0;entryX=0.5;entryY=0;entryDx=0;entryDy=0;" edge="1" parent="1">
          <mxGeometry width="50" height="50" relative="1" as="geometry">
            <mxPoint x="399.8" y="340" as="sourcePoint" />
            <mxPoint x="399.8" y="360" as="targetPoint" />
          </mxGeometry>
        </mxCell>
        <mxCell id="9qxclZ9WIJRdPY8J6UA6-270" value="" style="endArrow=classic;html=1;rounded=0;entryX=0.5;entryY=0;entryDx=0;entryDy=0;" edge="1" parent="1">
          <mxGeometry width="50" height="50" relative="1" as="geometry">
            <mxPoint x="519.8" y="420" as="sourcePoint" />
            <mxPoint x="519.8" y="440" as="targetPoint" />
          </mxGeometry>
        </mxCell>
        <mxCell id="9qxclZ9WIJRdPY8J6UA6-271" value="" style="endArrow=classic;html=1;rounded=0;entryX=0.5;entryY=0;entryDx=0;entryDy=0;" edge="1" parent="1">
          <mxGeometry width="50" height="50" relative="1" as="geometry">
            <mxPoint x="519.8" y="180" as="sourcePoint" />
            <mxPoint x="519.8" y="200" as="targetPoint" />
          </mxGeometry>
        </mxCell>
        <mxCell id="9qxclZ9WIJRdPY8J6UA6-274" value="" style="endArrow=classic;html=1;rounded=0;" edge="1" parent="1">
          <mxGeometry width="50" height="50" relative="1" as="geometry">
            <mxPoint x="399.52" y="40" as="sourcePoint" />
            <mxPoint x="400" y="20" as="targetPoint" />
          </mxGeometry>
        </mxCell>
        <mxCell id="9qxclZ9WIJRdPY8J6UA6-275" value="2" style="text;html=1;strokeColor=none;fillColor=none;align=center;verticalAlign=middle;whiteSpace=wrap;rounded=0;" vertex="1" parent="1">
          <mxGeometry x="390" width="20" height="20" as="geometry" />
        </mxCell>
        <mxCell id="9qxclZ9WIJRdPY8J6UA6-276" value="" style="rounded=0;whiteSpace=wrap;html=1;fillColor=#E6E6E6;" vertex="1" parent="1">
          <mxGeometry x="280" y="350" width="10" height="10" as="geometry" />
        </mxCell>
        <mxCell id="9qxclZ9WIJRdPY8J6UA6-277" value="" style="rounded=0;whiteSpace=wrap;html=1;fillColor=#E6E6E6;" vertex="1" parent="1">
          <mxGeometry x="290" y="350" width="10" height="10" as="geometry" />
        </mxCell>
        <mxCell id="9qxclZ9WIJRdPY8J6UA6-279" value="" style="endArrow=none;dashed=1;html=1;dashPattern=1 3;strokeWidth=2;rounded=0;exitX=0.5;exitY=0.333;exitDx=0;exitDy=0;exitPerimeter=0;" edge="1" parent="1">
          <mxGeometry width="50" height="50" relative="1" as="geometry">
            <mxPoint x="399.76" y="40" as="sourcePoint" />
            <mxPoint x="399.76" y="-20" as="targetPoint" />
          </mxGeometry>
        </mxCell>
        <mxCell id="9qxclZ9WIJRdPY8J6UA6-280" value="" style="endArrow=classic;html=1;rounded=0;entryX=0.5;entryY=0;entryDx=0;entryDy=0;" edge="1" parent="1">
          <mxGeometry width="50" height="50" relative="1" as="geometry">
            <mxPoint x="399.76" y="20" as="sourcePoint" />
            <mxPoint x="399.76" y="40" as="targetPoint" />
          </mxGeometry>
        </mxCell>
        <mxCell id="9qxclZ9WIJRdPY8J6UA6-281" value="" style="rounded=0;whiteSpace=wrap;html=1;fillColor=#E6E6E6;" vertex="1" parent="1">
          <mxGeometry x="310" y="30" width="10" height="10" as="geometry" />
        </mxCell>
        <mxCell id="9qxclZ9WIJRdPY8J6UA6-283" value="" style="rounded=0;whiteSpace=wrap;html=1;fillColor=#E6E6E6;direction=south;" vertex="1" parent="1">
          <mxGeometry x="300" y="350" width="10" height="10" as="geometry" />
        </mxCell>
        <mxCell id="9qxclZ9WIJRdPY8J6UA6-284" value="" style="rounded=0;whiteSpace=wrap;html=1;fillColor=#E6E6E6;" vertex="1" parent="1">
          <mxGeometry x="320" y="30" width="10" height="10" as="geometry" />
        </mxCell>
        <mxCell id="9qxclZ9WIJRdPY8J6UA6-285" value="" style="rounded=0;whiteSpace=wrap;html=1;fillColor=#E6E6E6;" vertex="1" parent="1">
          <mxGeometry x="330" y="30" width="10" height="10" as="geometry" />
        </mxCell>
        <mxCell id="9qxclZ9WIJRdPY8J6UA6-287" value="" style="rounded=0;whiteSpace=wrap;html=1;fillColor=#E6E6E6;" vertex="1" parent="1">
          <mxGeometry x="340" y="110" width="10" height="10" as="geometry" />
        </mxCell>
        <mxCell id="9qxclZ9WIJRdPY8J6UA6-288" value="" style="endArrow=none;html=1;rounded=0;exitX=0;exitY=1;exitDx=0;exitDy=0;entryX=1;entryY=0;entryDx=0;entryDy=0;" edge="1" parent="1" source="9qxclZ9WIJRdPY8J6UA6-287" target="9qxclZ9WIJRdPY8J6UA6-287">
          <mxGeometry width="50" height="50" relative="1" as="geometry">
            <mxPoint x="260" y="170" as="sourcePoint" />
            <mxPoint x="310" y="120" as="targetPoint" />
          </mxGeometry>
        </mxCell>
        <mxCell id="9qxclZ9WIJRdPY8J6UA6-289" value="" style="endArrow=none;html=1;rounded=0;" edge="1" parent="1">
          <mxGeometry width="50" height="50" relative="1" as="geometry">
            <mxPoint x="310" y="320" as="sourcePoint" />
            <mxPoint x="340" y="320" as="targetPoint" />
          </mxGeometry>
        </mxCell>
        <mxCell id="9qxclZ9WIJRdPY8J6UA6-290" value="" style="endArrow=none;html=1;rounded=0;entryX=1;entryY=1;entryDx=0;entryDy=0;" edge="1" parent="1" target="9qxclZ9WIJRdPY8J6UA6-285">
          <mxGeometry width="50" height="50" relative="1" as="geometry">
            <mxPoint x="280" y="-20" as="sourcePoint" />
            <mxPoint x="310" y="60" as="targetPoint" />
          </mxGeometry>
        </mxCell>
        <mxCell id="9qxclZ9WIJRdPY8J6UA6-291" value="" style="endArrow=none;html=1;rounded=0;" edge="1" parent="1">
          <mxGeometry width="50" height="50" relative="1" as="geometry">
            <mxPoint x="340" y="320" as="sourcePoint" />
            <mxPoint x="380" y="360" as="targetPoint" />
          </mxGeometry>
        </mxCell>
        <mxCell id="9qxclZ9WIJRdPY8J6UA6-292" value="" style="rounded=0;whiteSpace=wrap;html=1;fillColor=#E6E6E6;" vertex="1" parent="1">
          <mxGeometry x="350" y="270" width="10" height="10" as="geometry" />
        </mxCell>
        <mxCell id="9qxclZ9WIJRdPY8J6UA6-293" value="" style="rounded=0;whiteSpace=wrap;html=1;fillColor=#E6E6E6;" vertex="1" parent="1">
          <mxGeometry x="360" y="270" width="10" height="10" as="geometry" />
        </mxCell>
        <mxCell id="9qxclZ9WIJRdPY8J6UA6-294" value="" style="endArrow=none;html=1;rounded=0;exitX=0;exitY=1;exitDx=0;exitDy=0;" edge="1" parent="1" source="9qxclZ9WIJRdPY8J6UA6-292">
          <mxGeometry width="50" height="50" relative="1" as="geometry">
            <mxPoint x="270" y="190" as="sourcePoint" />
            <mxPoint x="370" y="260" as="targetPoint" />
          </mxGeometry>
        </mxCell>
        <mxCell id="9qxclZ9WIJRdPY8J6UA6-295" value="" style="endArrow=none;html=1;rounded=0;exitX=1;exitY=0;exitDx=0;exitDy=0;" edge="1" parent="1" source="9qxclZ9WIJRdPY8J6UA6-287">
          <mxGeometry width="50" height="50" relative="1" as="geometry">
            <mxPoint x="270" y="130" as="sourcePoint" />
            <mxPoint x="400" y="110" as="targetPoint" />
          </mxGeometry>
        </mxCell>
        <mxCell id="9qxclZ9WIJRdPY8J6UA6-296" value="" style="rounded=0;whiteSpace=wrap;html=1;fillColor=#E6E6E6;direction=south;" vertex="1" parent="1">
          <mxGeometry x="370" y="430" width="10" height="10" as="geometry" />
        </mxCell>
        <mxCell id="9qxclZ9WIJRdPY8J6UA6-298" value="" style="rounded=0;whiteSpace=wrap;html=1;fillColor=#E6E6E6;direction=south;" vertex="1" parent="1">
          <mxGeometry x="380" y="430" width="10" height="10" as="geometry" />
        </mxCell>
        <mxCell id="9qxclZ9WIJRdPY8J6UA6-299" value="" style="rounded=0;whiteSpace=wrap;html=1;fillColor=#E6E6E6;direction=south;" vertex="1" parent="1">
          <mxGeometry x="390" y="430" width="10" height="10" as="geometry" />
        </mxCell>
        <mxCell id="9qxclZ9WIJRdPY8J6UA6-300" value="" style="endArrow=none;html=1;rounded=0;exitX=1;exitY=1;exitDx=0;exitDy=0;" edge="1" parent="1" source="9qxclZ9WIJRdPY8J6UA6-296">
          <mxGeometry width="50" height="50" relative="1" as="geometry">
            <mxPoint x="340" y="310" as="sourcePoint" />
            <mxPoint x="400" y="410" as="targetPoint" />
          </mxGeometry>
        </mxCell>
        <mxCell id="9qxclZ9WIJRdPY8J6UA6-301" value="" style="endArrow=none;html=1;rounded=0;" edge="1" parent="1">
          <mxGeometry width="50" height="50" relative="1" as="geometry">
            <mxPoint x="370" y="260" as="sourcePoint" />
            <mxPoint x="380" y="260" as="targetPoint" />
          </mxGeometry>
        </mxCell>
        <mxCell id="9qxclZ9WIJRdPY8J6UA6-302" value="" style="endArrow=none;html=1;rounded=0;" edge="1" parent="1">
          <mxGeometry width="50" height="50" relative="1" as="geometry">
            <mxPoint x="380" y="260" as="sourcePoint" />
            <mxPoint x="400" y="280" as="targetPoint" />
          </mxGeometry>
        </mxCell>
        <mxCell id="9qxclZ9WIJRdPY8J6UA6-303" value="" style="rounded=0;whiteSpace=wrap;html=1;fillColor=#E6E6E6;" vertex="1" parent="1">
          <mxGeometry x="400" y="30" width="10" height="10" as="geometry" />
        </mxCell>
        <mxCell id="9qxclZ9WIJRdPY8J6UA6-304" value="" style="rounded=0;whiteSpace=wrap;html=1;fillColor=#E6E6E6;" vertex="1" parent="1">
          <mxGeometry x="410" y="30" width="10" height="10" as="geometry" />
        </mxCell>
        <mxCell id="9qxclZ9WIJRdPY8J6UA6-305" value="" style="endArrow=none;html=1;rounded=0;" edge="1" parent="1">
          <mxGeometry width="50" height="50" relative="1" as="geometry">
            <mxPoint x="400" y="-20" as="sourcePoint" />
            <mxPoint x="460" y="40" as="targetPoint" />
          </mxGeometry>
        </mxCell>
        <mxCell id="9qxclZ9WIJRdPY8J6UA6-306" value="" style="endArrow=classic;html=1;rounded=0;entryX=0.5;entryY=0;entryDx=0;entryDy=0;" edge="1" parent="1">
          <mxGeometry width="50" height="50" relative="1" as="geometry">
            <mxPoint x="519.8" y="20" as="sourcePoint" />
            <mxPoint x="519.8" y="40" as="targetPoint" />
          </mxGeometry>
        </mxCell>
        <mxCell id="9qxclZ9WIJRdPY8J6UA6-307" value="" style="endArrow=classic;html=1;rounded=0;entryX=0.5;entryY=0;entryDx=0;entryDy=0;" edge="1" parent="1">
          <mxGeometry width="50" height="50" relative="1" as="geometry">
            <mxPoint x="519.8" y="100" as="sourcePoint" />
            <mxPoint x="519.8" y="120" as="targetPoint" />
          </mxGeometry>
        </mxCell>
        <mxCell id="9qxclZ9WIJRdPY8J6UA6-308" value="" style="endArrow=classic;html=1;rounded=0;entryX=0.5;entryY=0;entryDx=0;entryDy=0;" edge="1" parent="1">
          <mxGeometry width="50" height="50" relative="1" as="geometry">
            <mxPoint x="519.8" y="260" as="sourcePoint" />
            <mxPoint x="519.8" y="280" as="targetPoint" />
          </mxGeometry>
        </mxCell>
        <mxCell id="9qxclZ9WIJRdPY8J6UA6-309" value="" style="endArrow=classic;html=1;rounded=0;entryX=0.5;entryY=0;entryDx=0;entryDy=0;" edge="1" parent="1">
          <mxGeometry width="50" height="50" relative="1" as="geometry">
            <mxPoint x="580" y="340" as="sourcePoint" />
            <mxPoint x="580" y="360" as="targetPoint" />
          </mxGeometry>
        </mxCell>
        <mxCell id="9qxclZ9WIJRdPY8J6UA6-311" value="" style="rounded=0;whiteSpace=wrap;html=1;fillColor=#E6E6E6;" vertex="1" parent="1">
          <mxGeometry x="420" y="190" width="10" height="10" as="geometry" />
        </mxCell>
        <mxCell id="9qxclZ9WIJRdPY8J6UA6-312" value="" style="rounded=0;whiteSpace=wrap;html=1;fillColor=#E6E6E6;" vertex="1" parent="1">
          <mxGeometry x="430" y="190" width="10" height="10" as="geometry" />
        </mxCell>
        <mxCell id="9qxclZ9WIJRdPY8J6UA6-313" value="" style="rounded=0;whiteSpace=wrap;html=1;fillColor=#E6E6E6;" vertex="1" parent="1">
          <mxGeometry x="440" y="190" width="10" height="10" as="geometry" />
        </mxCell>
        <mxCell id="9qxclZ9WIJRdPY8J6UA6-314" value="" style="rounded=0;whiteSpace=wrap;html=1;fillColor=#E6E6E6;" vertex="1" parent="1">
          <mxGeometry x="450" y="190" width="10" height="10" as="geometry" />
        </mxCell>
        <mxCell id="9qxclZ9WIJRdPY8J6UA6-315" value="" style="rounded=0;whiteSpace=wrap;html=1;fillColor=#E6E6E6;" vertex="1" parent="1">
          <mxGeometry x="460" y="190" width="10" height="10" as="geometry" />
        </mxCell>
        <mxCell id="9qxclZ9WIJRdPY8J6UA6-316" value="" style="endArrow=none;html=1;rounded=0;" edge="1" parent="1">
          <mxGeometry width="50" height="50" relative="1" as="geometry">
            <mxPoint x="420" y="200" as="sourcePoint" />
            <mxPoint x="470" y="150" as="targetPoint" />
          </mxGeometry>
        </mxCell>
        <mxCell id="9qxclZ9WIJRdPY8J6UA6-317" value="" style="endArrow=none;html=1;rounded=0;" edge="1" parent="1">
          <mxGeometry width="50" height="50" relative="1" as="geometry">
            <mxPoint x="400" y="410" as="sourcePoint" />
            <mxPoint x="460" y="410" as="targetPoint" />
          </mxGeometry>
        </mxCell>
        <mxCell id="9qxclZ9WIJRdPY8J6UA6-318" value="" style="endArrow=none;html=1;rounded=0;" edge="1" parent="1">
          <mxGeometry width="50" height="50" relative="1" as="geometry">
            <mxPoint x="460" y="410" as="sourcePoint" />
            <mxPoint x="490" y="440" as="targetPoint" />
          </mxGeometry>
        </mxCell>
        <mxCell id="9qxclZ9WIJRdPY8J6UA6-319" value="" style="rounded=0;whiteSpace=wrap;html=1;fillColor=#E6E6E6;" vertex="1" parent="1">
          <mxGeometry x="470" y="110" width="10" height="10" as="geometry" />
        </mxCell>
        <mxCell id="9qxclZ9WIJRdPY8J6UA6-320" value="" style="endArrow=none;html=1;rounded=0;" edge="1" parent="1">
          <mxGeometry width="50" height="50" relative="1" as="geometry">
            <mxPoint x="470" y="120" as="sourcePoint" />
            <mxPoint x="480" y="110" as="targetPoint" />
          </mxGeometry>
        </mxCell>
        <mxCell id="9qxclZ9WIJRdPY8J6UA6-321" value="" style="endArrow=none;html=1;rounded=0;" edge="1" parent="1">
          <mxGeometry width="50" height="50" relative="1" as="geometry">
            <mxPoint x="470" y="150" as="sourcePoint" />
            <mxPoint x="500" y="150" as="targetPoint" />
          </mxGeometry>
        </mxCell>
        <mxCell id="9qxclZ9WIJRdPY8J6UA6-322" value="" style="rounded=0;whiteSpace=wrap;html=1;fillColor=#E6E6E6;" vertex="1" parent="1">
          <mxGeometry x="480" y="270" width="10" height="10" as="geometry" />
        </mxCell>
        <mxCell id="9qxclZ9WIJRdPY8J6UA6-323" value="" style="rounded=0;whiteSpace=wrap;html=1;fillColor=#E6E6E6;" vertex="1" parent="1">
          <mxGeometry x="490" y="270" width="10" height="10" as="geometry" />
        </mxCell>
        <mxCell id="9qxclZ9WIJRdPY8J6UA6-324" value="" style="endArrow=none;html=1;rounded=0;exitX=0;exitY=1;exitDx=0;exitDy=0;" edge="1" parent="1" source="9qxclZ9WIJRdPY8J6UA6-322">
          <mxGeometry width="50" height="50" relative="1" as="geometry">
            <mxPoint x="430" y="310" as="sourcePoint" />
            <mxPoint x="500" y="260" as="targetPoint" />
          </mxGeometry>
        </mxCell>
        <mxCell id="9qxclZ9WIJRdPY8J6UA6-326" value="" style="endArrow=none;html=1;rounded=0;exitX=1;exitY=0;exitDx=0;exitDy=0;" edge="1" parent="1" source="9qxclZ9WIJRdPY8J6UA6-319">
          <mxGeometry width="50" height="50" relative="1" as="geometry">
            <mxPoint x="430" y="250" as="sourcePoint" />
            <mxPoint x="490" y="110" as="targetPoint" />
          </mxGeometry>
        </mxCell>
        <mxCell id="9qxclZ9WIJRdPY8J6UA6-327" value="" style="endArrow=none;html=1;rounded=0;" edge="1" parent="1">
          <mxGeometry width="50" height="50" relative="1" as="geometry">
            <mxPoint x="490" y="110" as="sourcePoint" />
            <mxPoint x="500" y="120" as="targetPoint" />
          </mxGeometry>
        </mxCell>
        <mxCell id="9qxclZ9WIJRdPY8J6UA6-328" value="" style="rounded=0;whiteSpace=wrap;html=1;fillColor=#E6E6E6;direction=south;" vertex="1" parent="1">
          <mxGeometry x="500" y="350" width="10" height="10" as="geometry" />
        </mxCell>
        <mxCell id="9qxclZ9WIJRdPY8J6UA6-329" value="" style="rounded=0;whiteSpace=wrap;html=1;fillColor=#E6E6E6;direction=south;" vertex="1" parent="1">
          <mxGeometry x="510" y="350" width="10" height="10" as="geometry" />
        </mxCell>
        <mxCell id="9qxclZ9WIJRdPY8J6UA6-330" value="" style="endArrow=none;html=1;rounded=0;exitX=1;exitY=1;exitDx=0;exitDy=0;" edge="1" parent="1" source="9qxclZ9WIJRdPY8J6UA6-328">
          <mxGeometry width="50" height="50" relative="1" as="geometry">
            <mxPoint x="480" y="310" as="sourcePoint" />
            <mxPoint x="540" y="320" as="targetPoint" />
          </mxGeometry>
        </mxCell>
        <mxCell id="9qxclZ9WIJRdPY8J6UA6-331" value="" style="endArrow=none;html=1;rounded=0;" edge="1" parent="1">
          <mxGeometry width="50" height="50" relative="1" as="geometry">
            <mxPoint x="500" y="260" as="sourcePoint" />
            <mxPoint x="520" y="280" as="targetPoint" />
          </mxGeometry>
        </mxCell>
        <mxCell id="9qxclZ9WIJRdPY8J6UA6-332" value="" style="endArrow=none;html=1;rounded=0;" edge="1" parent="1">
          <mxGeometry width="50" height="50" relative="1" as="geometry">
            <mxPoint x="500" y="150" as="sourcePoint" />
            <mxPoint x="520" y="150" as="targetPoint" />
          </mxGeometry>
        </mxCell>
        <mxCell id="9qxclZ9WIJRdPY8J6UA6-333" value="" style="endArrow=none;html=1;rounded=0;" edge="1" parent="1">
          <mxGeometry width="50" height="50" relative="1" as="geometry">
            <mxPoint x="520" y="150" as="sourcePoint" />
            <mxPoint x="520" y="180" as="targetPoint" />
          </mxGeometry>
        </mxCell>
        <mxCell id="9qxclZ9WIJRdPY8J6UA6-334" value="" style="endArrow=none;dashed=1;html=1;dashPattern=1 3;strokeWidth=2;rounded=0;exitX=0.5;exitY=0.333;exitDx=0;exitDy=0;exitPerimeter=0;" edge="1" parent="1">
          <mxGeometry width="50" height="50" relative="1" as="geometry">
            <mxPoint x="520" y="40" as="sourcePoint" />
            <mxPoint x="520" y="-20" as="targetPoint" />
          </mxGeometry>
        </mxCell>
        <mxCell id="9qxclZ9WIJRdPY8J6UA6-335" value="54" style="text;html=1;strokeColor=none;fillColor=none;align=center;verticalAlign=middle;whiteSpace=wrap;rounded=0;" vertex="1" parent="1">
          <mxGeometry x="570" y="370" width="20" height="10" as="geometry" />
        </mxCell>
        <mxCell id="9qxclZ9WIJRdPY8J6UA6-336" value="" style="rounded=0;whiteSpace=wrap;html=1;fillColor=#E6E6E6;direction=south;" vertex="1" parent="1">
          <mxGeometry x="520" y="350" width="10" height="10" as="geometry" />
        </mxCell>
        <mxCell id="9qxclZ9WIJRdPY8J6UA6-338" value="" style="rounded=0;whiteSpace=wrap;html=1;fillColor=#E6E6E6;direction=south;" vertex="1" parent="1">
          <mxGeometry x="530" y="350" width="10" height="10" as="geometry" />
        </mxCell>
        <mxCell id="9qxclZ9WIJRdPY8J6UA6-339" value="" style="endArrow=none;html=1;rounded=0;" edge="1" parent="1">
          <mxGeometry width="50" height="50" relative="1" as="geometry">
            <mxPoint x="520" y="-20" as="sourcePoint" />
            <mxPoint x="540" as="targetPoint" />
          </mxGeometry>
        </mxCell>
        <mxCell id="9qxclZ9WIJRdPY8J6UA6-565" value="" style="endArrow=none;html=1;rounded=0;" edge="1" parent="1">
          <mxGeometry width="50" height="50" relative="1" as="geometry">
            <mxPoint x="40" y="1000" as="sourcePoint" />
            <mxPoint x="760" y="1000" as="targetPoint" />
          </mxGeometry>
        </mxCell>
        <mxCell id="9qxclZ9WIJRdPY8J6UA6-566" value="" style="endArrow=none;html=1;rounded=0;" edge="1" parent="1">
          <mxGeometry width="50" height="50" relative="1" as="geometry">
            <mxPoint x="40" y="920" as="sourcePoint" />
            <mxPoint x="760" y="920" as="targetPoint" />
          </mxGeometry>
        </mxCell>
        <mxCell id="9qxclZ9WIJRdPY8J6UA6-567" value="" style="endArrow=none;html=1;rounded=0;" edge="1" parent="1">
          <mxGeometry width="50" height="50" relative="1" as="geometry">
            <mxPoint x="40" y="840" as="sourcePoint" />
            <mxPoint x="760" y="840" as="targetPoint" />
          </mxGeometry>
        </mxCell>
        <mxCell id="9qxclZ9WIJRdPY8J6UA6-568" value="" style="endArrow=none;html=1;rounded=0;" edge="1" parent="1">
          <mxGeometry width="50" height="50" relative="1" as="geometry">
            <mxPoint x="40" y="760" as="sourcePoint" />
            <mxPoint x="760" y="760" as="targetPoint" />
          </mxGeometry>
        </mxCell>
        <mxCell id="9qxclZ9WIJRdPY8J6UA6-569" value="" style="endArrow=none;html=1;rounded=0;" edge="1" parent="1">
          <mxGeometry width="50" height="50" relative="1" as="geometry">
            <mxPoint x="40" y="680" as="sourcePoint" />
            <mxPoint x="760" y="680" as="targetPoint" />
          </mxGeometry>
        </mxCell>
        <mxCell id="9qxclZ9WIJRdPY8J6UA6-570" value="" style="endArrow=none;html=1;rounded=0;" edge="1" parent="1">
          <mxGeometry width="50" height="50" relative="1" as="geometry">
            <mxPoint x="40" y="600" as="sourcePoint" />
            <mxPoint x="760" y="600" as="targetPoint" />
          </mxGeometry>
        </mxCell>
        <mxCell id="9qxclZ9WIJRdPY8J6UA6-571" value="T1" style="text;html=1;strokeColor=none;fillColor=none;align=center;verticalAlign=middle;whiteSpace=wrap;rounded=0;" vertex="1" parent="1">
          <mxGeometry x="15" y="970" width="20" height="30" as="geometry" />
        </mxCell>
        <mxCell id="9qxclZ9WIJRdPY8J6UA6-572" value="T2" style="text;html=1;strokeColor=none;fillColor=none;align=center;verticalAlign=middle;whiteSpace=wrap;rounded=0;" vertex="1" parent="1">
          <mxGeometry x="-5" y="890" width="60" height="30" as="geometry" />
        </mxCell>
        <mxCell id="9qxclZ9WIJRdPY8J6UA6-573" value="T3" style="text;html=1;strokeColor=none;fillColor=none;align=center;verticalAlign=middle;whiteSpace=wrap;rounded=0;" vertex="1" parent="1">
          <mxGeometry x="-5" y="820" width="60" height="30" as="geometry" />
        </mxCell>
        <mxCell id="9qxclZ9WIJRdPY8J6UA6-574" value="T4" style="text;html=1;strokeColor=none;fillColor=none;align=center;verticalAlign=middle;whiteSpace=wrap;rounded=0;" vertex="1" parent="1">
          <mxGeometry x="-5" y="740" width="60" height="30" as="geometry" />
        </mxCell>
        <mxCell id="9qxclZ9WIJRdPY8J6UA6-575" value="T5" style="text;html=1;strokeColor=none;fillColor=none;align=center;verticalAlign=middle;whiteSpace=wrap;rounded=0;" vertex="1" parent="1">
          <mxGeometry x="15" y="665" width="20" height="20" as="geometry" />
        </mxCell>
        <mxCell id="9qxclZ9WIJRdPY8J6UA6-576" value="Aperiodics" style="text;html=1;strokeColor=none;fillColor=none;align=center;verticalAlign=middle;whiteSpace=wrap;rounded=0;" vertex="1" parent="1">
          <mxGeometry x="-30" y="580" width="60" height="30" as="geometry" />
        </mxCell>
        <mxCell id="9qxclZ9WIJRdPY8J6UA6-577" value="0" style="text;html=1;strokeColor=none;fillColor=none;align=center;verticalAlign=middle;whiteSpace=wrap;rounded=0;" vertex="1" parent="1">
          <mxGeometry x="15" y="1000" width="60" height="30" as="geometry" />
        </mxCell>
        <mxCell id="9qxclZ9WIJRdPY8J6UA6-581" value="" style="endArrow=classic;html=1;rounded=0;entryX=0.5;entryY=0;entryDx=0;entryDy=0;" edge="1" parent="1">
          <mxGeometry width="50" height="50" relative="1" as="geometry">
            <mxPoint x="279.77" y="740" as="sourcePoint" />
            <mxPoint x="279.77" y="760" as="targetPoint" />
          </mxGeometry>
        </mxCell>
        <mxCell id="9qxclZ9WIJRdPY8J6UA6-582" value="" style="endArrow=classic;html=1;rounded=0;entryX=0.5;entryY=0;entryDx=0;entryDy=0;" edge="1" parent="1">
          <mxGeometry width="50" height="50" relative="1" as="geometry">
            <mxPoint x="220" y="900" as="sourcePoint" />
            <mxPoint x="220" y="920" as="targetPoint" />
          </mxGeometry>
        </mxCell>
        <mxCell id="9qxclZ9WIJRdPY8J6UA6-587" value="" style="endArrow=none;html=1;rounded=0;" edge="1" parent="1">
          <mxGeometry width="50" height="50" relative="1" as="geometry">
            <mxPoint x="40.00000000000001" y="760" as="sourcePoint" />
            <mxPoint x="40.24" y="700" as="targetPoint" />
          </mxGeometry>
        </mxCell>
        <mxCell id="9qxclZ9WIJRdPY8J6UA6-588" value="" style="endArrow=none;html=1;rounded=0;" edge="1" parent="1">
          <mxGeometry width="50" height="50" relative="1" as="geometry">
            <mxPoint x="40.00000000000001" y="840" as="sourcePoint" />
            <mxPoint x="40.24" y="780" as="targetPoint" />
          </mxGeometry>
        </mxCell>
        <mxCell id="9qxclZ9WIJRdPY8J6UA6-589" value="" style="endArrow=none;html=1;rounded=0;" edge="1" parent="1">
          <mxGeometry width="50" height="50" relative="1" as="geometry">
            <mxPoint x="40.00000000000001" y="680" as="sourcePoint" />
            <mxPoint x="40.24" y="620" as="targetPoint" />
          </mxGeometry>
        </mxCell>
        <mxCell id="9qxclZ9WIJRdPY8J6UA6-590" value="" style="endArrow=none;html=1;rounded=0;" edge="1" parent="1">
          <mxGeometry width="50" height="50" relative="1" as="geometry">
            <mxPoint x="40.00000000000001" y="600" as="sourcePoint" />
            <mxPoint x="40.24" y="540" as="targetPoint" />
          </mxGeometry>
        </mxCell>
        <mxCell id="9qxclZ9WIJRdPY8J6UA6-591" value="" style="endArrow=none;html=1;rounded=0;" edge="1" parent="1">
          <mxGeometry width="50" height="50" relative="1" as="geometry">
            <mxPoint x="40.000000000000014" y="920" as="sourcePoint" />
            <mxPoint x="40.24000000000001" y="860" as="targetPoint" />
          </mxGeometry>
        </mxCell>
        <mxCell id="9qxclZ9WIJRdPY8J6UA6-592" value="" style="endArrow=none;html=1;rounded=0;" edge="1" parent="1">
          <mxGeometry width="50" height="50" relative="1" as="geometry">
            <mxPoint x="40" y="1000" as="sourcePoint" />
            <mxPoint x="40.24000000000001" y="940" as="targetPoint" />
          </mxGeometry>
        </mxCell>
        <mxCell id="9qxclZ9WIJRdPY8J6UA6-593" value="4" style="text;html=1;strokeColor=none;fillColor=none;align=center;verticalAlign=middle;whiteSpace=wrap;rounded=0;" vertex="1" parent="1">
          <mxGeometry x="62.5" y="930" width="30" height="10" as="geometry" />
        </mxCell>
        <mxCell id="9qxclZ9WIJRdPY8J6UA6-594" value="8" style="text;html=1;strokeColor=none;fillColor=none;align=center;verticalAlign=middle;whiteSpace=wrap;rounded=0;" vertex="1" parent="1">
          <mxGeometry x="102.5" y="930" width="30" height="10" as="geometry" />
        </mxCell>
        <mxCell id="9qxclZ9WIJRdPY8J6UA6-595" value="12" style="text;html=1;strokeColor=none;fillColor=none;align=center;verticalAlign=middle;whiteSpace=wrap;rounded=0;" vertex="1" parent="1">
          <mxGeometry x="142.5" y="930" width="30" height="10" as="geometry" />
        </mxCell>
        <mxCell id="9qxclZ9WIJRdPY8J6UA6-596" value="20" style="text;html=1;strokeColor=none;fillColor=none;align=center;verticalAlign=middle;whiteSpace=wrap;rounded=0;" vertex="1" parent="1">
          <mxGeometry x="227.5" y="930" width="20" height="10" as="geometry" />
        </mxCell>
        <mxCell id="9qxclZ9WIJRdPY8J6UA6-597" value="24" style="text;html=1;strokeColor=none;fillColor=none;align=center;verticalAlign=middle;whiteSpace=wrap;rounded=0;" vertex="1" parent="1">
          <mxGeometry x="267.5" y="930" width="20" height="10" as="geometry" />
        </mxCell>
        <mxCell id="9qxclZ9WIJRdPY8J6UA6-598" value="16" style="text;html=1;strokeColor=none;fillColor=none;align=center;verticalAlign=middle;whiteSpace=wrap;rounded=0;" vertex="1" parent="1">
          <mxGeometry x="187.5" y="930" width="20" height="10" as="geometry" />
        </mxCell>
        <mxCell id="9qxclZ9WIJRdPY8J6UA6-601" value="" style="endArrow=classic;html=1;rounded=0;" edge="1" parent="1">
          <mxGeometry width="50" height="50" relative="1" as="geometry">
            <mxPoint x="89.51999999999998" y="600" as="sourcePoint" />
            <mxPoint x="90" y="580" as="targetPoint" />
          </mxGeometry>
        </mxCell>
        <mxCell id="9qxclZ9WIJRdPY8J6UA6-602" value="4" style="text;html=1;strokeColor=none;fillColor=none;align=center;verticalAlign=middle;whiteSpace=wrap;rounded=0;" vertex="1" parent="1">
          <mxGeometry x="80" y="560" width="20" height="20" as="geometry" />
        </mxCell>
        <mxCell id="9qxclZ9WIJRdPY8J6UA6-603" value="" style="endArrow=classic;html=1;rounded=0;entryX=0.5;entryY=1;entryDx=0;entryDy=0;" edge="1" parent="1" target="9qxclZ9WIJRdPY8J6UA6-604">
          <mxGeometry width="50" height="50" relative="1" as="geometry">
            <mxPoint x="169.76" y="600" as="sourcePoint" />
            <mxPoint x="170.24" y="580" as="targetPoint" />
          </mxGeometry>
        </mxCell>
        <mxCell id="9qxclZ9WIJRdPY8J6UA6-604" value="1" style="text;html=1;strokeColor=none;fillColor=none;align=center;verticalAlign=middle;whiteSpace=wrap;rounded=0;" vertex="1" parent="1">
          <mxGeometry x="160" y="560" width="20" height="20" as="geometry" />
        </mxCell>
        <mxCell id="9qxclZ9WIJRdPY8J6UA6-605" value="" style="endArrow=classic;html=1;rounded=0;" edge="1" parent="1">
          <mxGeometry width="50" height="50" relative="1" as="geometry">
            <mxPoint x="310" y="600" as="sourcePoint" />
            <mxPoint x="310" y="580" as="targetPoint" />
          </mxGeometry>
        </mxCell>
        <mxCell id="9qxclZ9WIJRdPY8J6UA6-606" value="3" style="text;html=1;strokeColor=none;fillColor=none;align=center;verticalAlign=middle;whiteSpace=wrap;rounded=0;" vertex="1" parent="1">
          <mxGeometry x="307.5" y="565" width="10" height="10" as="geometry" />
        </mxCell>
        <mxCell id="9qxclZ9WIJRdPY8J6UA6-622" value="4" style="text;html=1;strokeColor=none;fillColor=none;align=center;verticalAlign=middle;whiteSpace=wrap;rounded=0;" vertex="1" parent="1">
          <mxGeometry x="65" y="850" width="30" height="10" as="geometry" />
        </mxCell>
        <mxCell id="9qxclZ9WIJRdPY8J6UA6-623" value="8" style="text;html=1;strokeColor=none;fillColor=none;align=center;verticalAlign=middle;whiteSpace=wrap;rounded=0;" vertex="1" parent="1">
          <mxGeometry x="105" y="850" width="30" height="10" as="geometry" />
        </mxCell>
        <mxCell id="9qxclZ9WIJRdPY8J6UA6-624" value="12" style="text;html=1;strokeColor=none;fillColor=none;align=center;verticalAlign=middle;whiteSpace=wrap;rounded=0;" vertex="1" parent="1">
          <mxGeometry x="145" y="850" width="30" height="10" as="geometry" />
        </mxCell>
        <mxCell id="9qxclZ9WIJRdPY8J6UA6-625" value="20" style="text;html=1;strokeColor=none;fillColor=none;align=center;verticalAlign=middle;whiteSpace=wrap;rounded=0;" vertex="1" parent="1">
          <mxGeometry x="230" y="850" width="20" height="10" as="geometry" />
        </mxCell>
        <mxCell id="9qxclZ9WIJRdPY8J6UA6-626" value="24" style="text;html=1;strokeColor=none;fillColor=none;align=center;verticalAlign=middle;whiteSpace=wrap;rounded=0;" vertex="1" parent="1">
          <mxGeometry x="270" y="850" width="20" height="10" as="geometry" />
        </mxCell>
        <mxCell id="9qxclZ9WIJRdPY8J6UA6-627" value="16" style="text;html=1;strokeColor=none;fillColor=none;align=center;verticalAlign=middle;whiteSpace=wrap;rounded=0;" vertex="1" parent="1">
          <mxGeometry x="190" y="850" width="20" height="10" as="geometry" />
        </mxCell>
        <mxCell id="9qxclZ9WIJRdPY8J6UA6-628" value="4" style="text;html=1;strokeColor=none;fillColor=none;align=center;verticalAlign=middle;whiteSpace=wrap;rounded=0;" vertex="1" parent="1">
          <mxGeometry x="65" y="770" width="30" height="10" as="geometry" />
        </mxCell>
        <mxCell id="9qxclZ9WIJRdPY8J6UA6-629" value="8" style="text;html=1;strokeColor=none;fillColor=none;align=center;verticalAlign=middle;whiteSpace=wrap;rounded=0;" vertex="1" parent="1">
          <mxGeometry x="105" y="770" width="30" height="10" as="geometry" />
        </mxCell>
        <mxCell id="9qxclZ9WIJRdPY8J6UA6-630" value="12" style="text;html=1;strokeColor=none;fillColor=none;align=center;verticalAlign=middle;whiteSpace=wrap;rounded=0;" vertex="1" parent="1">
          <mxGeometry x="145" y="770" width="30" height="10" as="geometry" />
        </mxCell>
        <mxCell id="9qxclZ9WIJRdPY8J6UA6-631" value="20" style="text;html=1;strokeColor=none;fillColor=none;align=center;verticalAlign=middle;whiteSpace=wrap;rounded=0;" vertex="1" parent="1">
          <mxGeometry x="230" y="770" width="20" height="10" as="geometry" />
        </mxCell>
        <mxCell id="9qxclZ9WIJRdPY8J6UA6-632" value="24" style="text;html=1;strokeColor=none;fillColor=none;align=center;verticalAlign=middle;whiteSpace=wrap;rounded=0;" vertex="1" parent="1">
          <mxGeometry x="270" y="770" width="20" height="10" as="geometry" />
        </mxCell>
        <mxCell id="9qxclZ9WIJRdPY8J6UA6-633" value="16" style="text;html=1;strokeColor=none;fillColor=none;align=center;verticalAlign=middle;whiteSpace=wrap;rounded=0;" vertex="1" parent="1">
          <mxGeometry x="190" y="770" width="20" height="10" as="geometry" />
        </mxCell>
        <mxCell id="9qxclZ9WIJRdPY8J6UA6-634" value="4" style="text;html=1;strokeColor=none;fillColor=none;align=center;verticalAlign=middle;whiteSpace=wrap;rounded=0;" vertex="1" parent="1">
          <mxGeometry x="65" y="685" width="30" height="10" as="geometry" />
        </mxCell>
        <mxCell id="9qxclZ9WIJRdPY8J6UA6-635" value="8" style="text;html=1;strokeColor=none;fillColor=none;align=center;verticalAlign=middle;whiteSpace=wrap;rounded=0;" vertex="1" parent="1">
          <mxGeometry x="105" y="685" width="30" height="10" as="geometry" />
        </mxCell>
        <mxCell id="9qxclZ9WIJRdPY8J6UA6-636" value="12" style="text;html=1;strokeColor=none;fillColor=none;align=center;verticalAlign=middle;whiteSpace=wrap;rounded=0;" vertex="1" parent="1">
          <mxGeometry x="145" y="685" width="30" height="10" as="geometry" />
        </mxCell>
        <mxCell id="9qxclZ9WIJRdPY8J6UA6-637" value="20" style="text;html=1;strokeColor=none;fillColor=none;align=center;verticalAlign=middle;whiteSpace=wrap;rounded=0;" vertex="1" parent="1">
          <mxGeometry x="230" y="685" width="20" height="10" as="geometry" />
        </mxCell>
        <mxCell id="9qxclZ9WIJRdPY8J6UA6-638" value="24" style="text;html=1;strokeColor=none;fillColor=none;align=center;verticalAlign=middle;whiteSpace=wrap;rounded=0;" vertex="1" parent="1">
          <mxGeometry x="270" y="685" width="20" height="10" as="geometry" />
        </mxCell>
        <mxCell id="9qxclZ9WIJRdPY8J6UA6-639" value="16" style="text;html=1;strokeColor=none;fillColor=none;align=center;verticalAlign=middle;whiteSpace=wrap;rounded=0;" vertex="1" parent="1">
          <mxGeometry x="190" y="685" width="20" height="10" as="geometry" />
        </mxCell>
        <mxCell id="9qxclZ9WIJRdPY8J6UA6-640" value="4" style="text;html=1;strokeColor=none;fillColor=none;align=center;verticalAlign=middle;whiteSpace=wrap;rounded=0;" vertex="1" parent="1">
          <mxGeometry x="65" y="610" width="30" height="10" as="geometry" />
        </mxCell>
        <mxCell id="9qxclZ9WIJRdPY8J6UA6-641" value="8" style="text;html=1;strokeColor=none;fillColor=none;align=center;verticalAlign=middle;whiteSpace=wrap;rounded=0;" vertex="1" parent="1">
          <mxGeometry x="105" y="610" width="30" height="10" as="geometry" />
        </mxCell>
        <mxCell id="9qxclZ9WIJRdPY8J6UA6-642" value="12" style="text;html=1;strokeColor=none;fillColor=none;align=center;verticalAlign=middle;whiteSpace=wrap;rounded=0;" vertex="1" parent="1">
          <mxGeometry x="145" y="610" width="30" height="10" as="geometry" />
        </mxCell>
        <mxCell id="9qxclZ9WIJRdPY8J6UA6-643" value="20" style="text;html=1;strokeColor=none;fillColor=none;align=center;verticalAlign=middle;whiteSpace=wrap;rounded=0;" vertex="1" parent="1">
          <mxGeometry x="230" y="610" width="20" height="10" as="geometry" />
        </mxCell>
        <mxCell id="9qxclZ9WIJRdPY8J6UA6-644" value="24" style="text;html=1;strokeColor=none;fillColor=none;align=center;verticalAlign=middle;whiteSpace=wrap;rounded=0;" vertex="1" parent="1">
          <mxGeometry x="270" y="610" width="20" height="10" as="geometry" />
        </mxCell>
        <mxCell id="9qxclZ9WIJRdPY8J6UA6-645" value="16" style="text;html=1;strokeColor=none;fillColor=none;align=center;verticalAlign=middle;whiteSpace=wrap;rounded=0;" vertex="1" parent="1">
          <mxGeometry x="190" y="610" width="20" height="10" as="geometry" />
        </mxCell>
        <mxCell id="9qxclZ9WIJRdPY8J6UA6-651" value="4" style="text;html=1;strokeColor=none;fillColor=none;align=center;verticalAlign=middle;whiteSpace=wrap;rounded=0;" vertex="1" parent="1">
          <mxGeometry x="65" y="1010" width="30" height="10" as="geometry" />
        </mxCell>
        <mxCell id="9qxclZ9WIJRdPY8J6UA6-652" value="8" style="text;html=1;strokeColor=none;fillColor=none;align=center;verticalAlign=middle;whiteSpace=wrap;rounded=0;" vertex="1" parent="1">
          <mxGeometry x="105" y="1010" width="30" height="10" as="geometry" />
        </mxCell>
        <mxCell id="9qxclZ9WIJRdPY8J6UA6-653" value="12" style="text;html=1;strokeColor=none;fillColor=none;align=center;verticalAlign=middle;whiteSpace=wrap;rounded=0;" vertex="1" parent="1">
          <mxGeometry x="145" y="1010" width="30" height="10" as="geometry" />
        </mxCell>
        <mxCell id="9qxclZ9WIJRdPY8J6UA6-654" value="20" style="text;html=1;strokeColor=none;fillColor=none;align=center;verticalAlign=middle;whiteSpace=wrap;rounded=0;" vertex="1" parent="1">
          <mxGeometry x="230" y="1010" width="20" height="10" as="geometry" />
        </mxCell>
        <mxCell id="9qxclZ9WIJRdPY8J6UA6-655" value="24" style="text;html=1;strokeColor=none;fillColor=none;align=center;verticalAlign=middle;whiteSpace=wrap;rounded=0;" vertex="1" parent="1">
          <mxGeometry x="270" y="1010" width="20" height="10" as="geometry" />
        </mxCell>
        <mxCell id="9qxclZ9WIJRdPY8J6UA6-656" value="16" style="text;html=1;strokeColor=none;fillColor=none;align=center;verticalAlign=middle;whiteSpace=wrap;rounded=0;" vertex="1" parent="1">
          <mxGeometry x="190" y="1010" width="20" height="10" as="geometry" />
        </mxCell>
        <mxCell id="9qxclZ9WIJRdPY8J6UA6-689" value="28" style="text;html=1;strokeColor=none;fillColor=none;align=center;verticalAlign=middle;whiteSpace=wrap;rounded=0;" vertex="1" parent="1">
          <mxGeometry x="310" y="685" width="20" height="10" as="geometry" />
        </mxCell>
        <mxCell id="9qxclZ9WIJRdPY8J6UA6-690" value="32" style="text;html=1;strokeColor=none;fillColor=none;align=center;verticalAlign=middle;whiteSpace=wrap;rounded=0;" vertex="1" parent="1">
          <mxGeometry x="350" y="685" width="20" height="10" as="geometry" />
        </mxCell>
        <mxCell id="9qxclZ9WIJRdPY8J6UA6-691" value="36" style="text;html=1;strokeColor=none;fillColor=none;align=center;verticalAlign=middle;whiteSpace=wrap;rounded=0;" vertex="1" parent="1">
          <mxGeometry x="390" y="685" width="20" height="10" as="geometry" />
        </mxCell>
        <mxCell id="9qxclZ9WIJRdPY8J6UA6-692" value="44" style="text;html=1;strokeColor=none;fillColor=none;align=center;verticalAlign=middle;whiteSpace=wrap;rounded=0;" vertex="1" parent="1">
          <mxGeometry x="470" y="685" width="20" height="10" as="geometry" />
        </mxCell>
        <mxCell id="9qxclZ9WIJRdPY8J6UA6-693" value="48" style="text;html=1;strokeColor=none;fillColor=none;align=center;verticalAlign=middle;whiteSpace=wrap;rounded=0;" vertex="1" parent="1">
          <mxGeometry x="510" y="685" width="20" height="10" as="geometry" />
        </mxCell>
        <mxCell id="9qxclZ9WIJRdPY8J6UA6-694" value="40" style="text;html=1;strokeColor=none;fillColor=none;align=center;verticalAlign=middle;whiteSpace=wrap;rounded=0;" vertex="1" parent="1">
          <mxGeometry x="430" y="685" width="20" height="10" as="geometry" />
        </mxCell>
        <mxCell id="9qxclZ9WIJRdPY8J6UA6-695" value="" style="endArrow=classic;html=1;rounded=0;entryX=0.5;entryY=0;entryDx=0;entryDy=0;" edge="1" parent="1">
          <mxGeometry width="50" height="50" relative="1" as="geometry">
            <mxPoint x="400" y="660" as="sourcePoint" />
            <mxPoint x="400" y="680" as="targetPoint" />
          </mxGeometry>
        </mxCell>
        <mxCell id="9qxclZ9WIJRdPY8J6UA6-696" value="28" style="text;html=1;strokeColor=none;fillColor=none;align=center;verticalAlign=middle;whiteSpace=wrap;rounded=0;" vertex="1" parent="1">
          <mxGeometry x="310" y="770" width="20" height="10" as="geometry" />
        </mxCell>
        <mxCell id="9qxclZ9WIJRdPY8J6UA6-697" value="32" style="text;html=1;strokeColor=none;fillColor=none;align=center;verticalAlign=middle;whiteSpace=wrap;rounded=0;" vertex="1" parent="1">
          <mxGeometry x="350" y="770" width="20" height="10" as="geometry" />
        </mxCell>
        <mxCell id="9qxclZ9WIJRdPY8J6UA6-698" value="36" style="text;html=1;strokeColor=none;fillColor=none;align=center;verticalAlign=middle;whiteSpace=wrap;rounded=0;" vertex="1" parent="1">
          <mxGeometry x="390" y="770" width="20" height="10" as="geometry" />
        </mxCell>
        <mxCell id="9qxclZ9WIJRdPY8J6UA6-699" value="44" style="text;html=1;strokeColor=none;fillColor=none;align=center;verticalAlign=middle;whiteSpace=wrap;rounded=0;" vertex="1" parent="1">
          <mxGeometry x="470" y="770" width="20" height="10" as="geometry" />
        </mxCell>
        <mxCell id="9qxclZ9WIJRdPY8J6UA6-700" value="48" style="text;html=1;strokeColor=none;fillColor=none;align=center;verticalAlign=middle;whiteSpace=wrap;rounded=0;" vertex="1" parent="1">
          <mxGeometry x="510" y="770" width="20" height="10" as="geometry" />
        </mxCell>
        <mxCell id="9qxclZ9WIJRdPY8J6UA6-701" value="40" style="text;html=1;strokeColor=none;fillColor=none;align=center;verticalAlign=middle;whiteSpace=wrap;rounded=0;" vertex="1" parent="1">
          <mxGeometry x="430" y="770" width="20" height="10" as="geometry" />
        </mxCell>
        <mxCell id="9qxclZ9WIJRdPY8J6UA6-702" value="28" style="text;html=1;strokeColor=none;fillColor=none;align=center;verticalAlign=middle;whiteSpace=wrap;rounded=0;" vertex="1" parent="1">
          <mxGeometry x="310" y="850" width="20" height="10" as="geometry" />
        </mxCell>
        <mxCell id="9qxclZ9WIJRdPY8J6UA6-703" value="32" style="text;html=1;strokeColor=none;fillColor=none;align=center;verticalAlign=middle;whiteSpace=wrap;rounded=0;" vertex="1" parent="1">
          <mxGeometry x="350" y="850" width="20" height="10" as="geometry" />
        </mxCell>
        <mxCell id="9qxclZ9WIJRdPY8J6UA6-704" value="36" style="text;html=1;strokeColor=none;fillColor=none;align=center;verticalAlign=middle;whiteSpace=wrap;rounded=0;" vertex="1" parent="1">
          <mxGeometry x="390" y="850" width="20" height="10" as="geometry" />
        </mxCell>
        <mxCell id="9qxclZ9WIJRdPY8J6UA6-705" value="44" style="text;html=1;strokeColor=none;fillColor=none;align=center;verticalAlign=middle;whiteSpace=wrap;rounded=0;" vertex="1" parent="1">
          <mxGeometry x="470" y="850" width="20" height="10" as="geometry" />
        </mxCell>
        <mxCell id="9qxclZ9WIJRdPY8J6UA6-706" value="48" style="text;html=1;strokeColor=none;fillColor=none;align=center;verticalAlign=middle;whiteSpace=wrap;rounded=0;" vertex="1" parent="1">
          <mxGeometry x="510" y="850" width="20" height="10" as="geometry" />
        </mxCell>
        <mxCell id="9qxclZ9WIJRdPY8J6UA6-707" value="40" style="text;html=1;strokeColor=none;fillColor=none;align=center;verticalAlign=middle;whiteSpace=wrap;rounded=0;" vertex="1" parent="1">
          <mxGeometry x="430" y="850" width="20" height="10" as="geometry" />
        </mxCell>
        <mxCell id="9qxclZ9WIJRdPY8J6UA6-708" value="28" style="text;html=1;strokeColor=none;fillColor=none;align=center;verticalAlign=middle;whiteSpace=wrap;rounded=0;" vertex="1" parent="1">
          <mxGeometry x="307.5" y="930" width="20" height="10" as="geometry" />
        </mxCell>
        <mxCell id="9qxclZ9WIJRdPY8J6UA6-709" value="32" style="text;html=1;strokeColor=none;fillColor=none;align=center;verticalAlign=middle;whiteSpace=wrap;rounded=0;" vertex="1" parent="1">
          <mxGeometry x="347.5" y="930" width="20" height="10" as="geometry" />
        </mxCell>
        <mxCell id="9qxclZ9WIJRdPY8J6UA6-710" value="36" style="text;html=1;strokeColor=none;fillColor=none;align=center;verticalAlign=middle;whiteSpace=wrap;rounded=0;" vertex="1" parent="1">
          <mxGeometry x="387.5" y="930" width="20" height="10" as="geometry" />
        </mxCell>
        <mxCell id="9qxclZ9WIJRdPY8J6UA6-711" value="44" style="text;html=1;strokeColor=none;fillColor=none;align=center;verticalAlign=middle;whiteSpace=wrap;rounded=0;" vertex="1" parent="1">
          <mxGeometry x="467.5" y="930" width="20" height="10" as="geometry" />
        </mxCell>
        <mxCell id="9qxclZ9WIJRdPY8J6UA6-712" value="48" style="text;html=1;strokeColor=none;fillColor=none;align=center;verticalAlign=middle;whiteSpace=wrap;rounded=0;" vertex="1" parent="1">
          <mxGeometry x="507.5" y="930" width="20" height="10" as="geometry" />
        </mxCell>
        <mxCell id="9qxclZ9WIJRdPY8J6UA6-713" value="40" style="text;html=1;strokeColor=none;fillColor=none;align=center;verticalAlign=middle;whiteSpace=wrap;rounded=0;" vertex="1" parent="1">
          <mxGeometry x="427.5" y="930" width="20" height="10" as="geometry" />
        </mxCell>
        <mxCell id="9qxclZ9WIJRdPY8J6UA6-714" value="28" style="text;html=1;strokeColor=none;fillColor=none;align=center;verticalAlign=middle;whiteSpace=wrap;rounded=0;" vertex="1" parent="1">
          <mxGeometry x="310" y="1010" width="20" height="10" as="geometry" />
        </mxCell>
        <mxCell id="9qxclZ9WIJRdPY8J6UA6-715" value="32" style="text;html=1;strokeColor=none;fillColor=none;align=center;verticalAlign=middle;whiteSpace=wrap;rounded=0;" vertex="1" parent="1">
          <mxGeometry x="350" y="1010" width="20" height="10" as="geometry" />
        </mxCell>
        <mxCell id="9qxclZ9WIJRdPY8J6UA6-716" value="36" style="text;html=1;strokeColor=none;fillColor=none;align=center;verticalAlign=middle;whiteSpace=wrap;rounded=0;" vertex="1" parent="1">
          <mxGeometry x="390" y="1010" width="20" height="10" as="geometry" />
        </mxCell>
        <mxCell id="9qxclZ9WIJRdPY8J6UA6-717" value="44" style="text;html=1;strokeColor=none;fillColor=none;align=center;verticalAlign=middle;whiteSpace=wrap;rounded=0;" vertex="1" parent="1">
          <mxGeometry x="470" y="1010" width="20" height="10" as="geometry" />
        </mxCell>
        <mxCell id="9qxclZ9WIJRdPY8J6UA6-718" value="48" style="text;html=1;strokeColor=none;fillColor=none;align=center;verticalAlign=middle;whiteSpace=wrap;rounded=0;" vertex="1" parent="1">
          <mxGeometry x="510" y="1010" width="20" height="10" as="geometry" />
        </mxCell>
        <mxCell id="9qxclZ9WIJRdPY8J6UA6-719" value="40" style="text;html=1;strokeColor=none;fillColor=none;align=center;verticalAlign=middle;whiteSpace=wrap;rounded=0;" vertex="1" parent="1">
          <mxGeometry x="430" y="1010" width="20" height="10" as="geometry" />
        </mxCell>
        <mxCell id="9qxclZ9WIJRdPY8J6UA6-720" value="28" style="text;html=1;strokeColor=none;fillColor=none;align=center;verticalAlign=middle;whiteSpace=wrap;rounded=0;" vertex="1" parent="1">
          <mxGeometry x="310" y="610" width="20" height="10" as="geometry" />
        </mxCell>
        <mxCell id="9qxclZ9WIJRdPY8J6UA6-721" value="32" style="text;html=1;strokeColor=none;fillColor=none;align=center;verticalAlign=middle;whiteSpace=wrap;rounded=0;" vertex="1" parent="1">
          <mxGeometry x="350" y="610" width="20" height="10" as="geometry" />
        </mxCell>
        <mxCell id="9qxclZ9WIJRdPY8J6UA6-722" value="36" style="text;html=1;strokeColor=none;fillColor=none;align=center;verticalAlign=middle;whiteSpace=wrap;rounded=0;" vertex="1" parent="1">
          <mxGeometry x="390" y="610" width="20" height="10" as="geometry" />
        </mxCell>
        <mxCell id="9qxclZ9WIJRdPY8J6UA6-723" value="44" style="text;html=1;strokeColor=none;fillColor=none;align=center;verticalAlign=middle;whiteSpace=wrap;rounded=0;" vertex="1" parent="1">
          <mxGeometry x="470" y="610" width="20" height="10" as="geometry" />
        </mxCell>
        <mxCell id="9qxclZ9WIJRdPY8J6UA6-724" value="48" style="text;html=1;strokeColor=none;fillColor=none;align=center;verticalAlign=middle;whiteSpace=wrap;rounded=0;" vertex="1" parent="1">
          <mxGeometry x="510" y="610" width="20" height="10" as="geometry" />
        </mxCell>
        <mxCell id="9qxclZ9WIJRdPY8J6UA6-725" value="40" style="text;html=1;strokeColor=none;fillColor=none;align=center;verticalAlign=middle;whiteSpace=wrap;rounded=0;" vertex="1" parent="1">
          <mxGeometry x="430" y="610" width="20" height="10" as="geometry" />
        </mxCell>
        <mxCell id="9qxclZ9WIJRdPY8J6UA6-727" value="" style="endArrow=classic;html=1;rounded=0;entryX=0.5;entryY=0;entryDx=0;entryDy=0;" edge="1" parent="1">
          <mxGeometry width="50" height="50" relative="1" as="geometry">
            <mxPoint x="400" y="900" as="sourcePoint" />
            <mxPoint x="400" y="920" as="targetPoint" />
          </mxGeometry>
        </mxCell>
        <mxCell id="9qxclZ9WIJRdPY8J6UA6-730" value="" style="endArrow=classic;html=1;rounded=0;entryX=0.5;entryY=1;entryDx=0;entryDy=0;" edge="1" parent="1" target="9qxclZ9WIJRdPY8J6UA6-731">
          <mxGeometry width="50" height="50" relative="1" as="geometry">
            <mxPoint x="400" y="600" as="sourcePoint" />
            <mxPoint x="400.48" y="580" as="targetPoint" />
          </mxGeometry>
        </mxCell>
        <mxCell id="9qxclZ9WIJRdPY8J6UA6-731" value="2" style="text;html=1;strokeColor=none;fillColor=none;align=center;verticalAlign=middle;whiteSpace=wrap;rounded=0;" vertex="1" parent="1">
          <mxGeometry x="390" y="560" width="20" height="20" as="geometry" />
        </mxCell>
        <mxCell id="9qxclZ9WIJRdPY8J6UA6-759" value="" style="endArrow=classic;html=1;rounded=0;entryX=0.5;entryY=0;entryDx=0;entryDy=0;" edge="1" parent="1">
          <mxGeometry width="50" height="50" relative="1" as="geometry">
            <mxPoint x="520" y="660" as="sourcePoint" />
            <mxPoint x="520" y="680" as="targetPoint" />
          </mxGeometry>
        </mxCell>
        <mxCell id="9qxclZ9WIJRdPY8J6UA6-761" value="" style="endArrow=classic;html=1;rounded=0;entryX=0.5;entryY=0;entryDx=0;entryDy=0;" edge="1" parent="1">
          <mxGeometry width="50" height="50" relative="1" as="geometry">
            <mxPoint x="579.9" y="900" as="sourcePoint" />
            <mxPoint x="579.9" y="920" as="targetPoint" />
          </mxGeometry>
        </mxCell>
        <mxCell id="9qxclZ9WIJRdPY8J6UA6-792" value="" style="endArrow=classic;html=1;rounded=0;entryX=0.5;entryY=0;entryDx=0;entryDy=0;" edge="1" parent="1">
          <mxGeometry width="50" height="50" relative="1" as="geometry">
            <mxPoint x="280" y="660" as="sourcePoint" />
            <mxPoint x="280" y="680" as="targetPoint" />
          </mxGeometry>
        </mxCell>
        <mxCell id="9qxclZ9WIJRdPY8J6UA6-795" value="" style="endArrow=classic;html=1;rounded=0;entryX=0.5;entryY=0;entryDx=0;entryDy=0;" edge="1" parent="1">
          <mxGeometry width="50" height="50" relative="1" as="geometry">
            <mxPoint x="520" y="740" as="sourcePoint" />
            <mxPoint x="520" y="760" as="targetPoint" />
          </mxGeometry>
        </mxCell>
        <mxCell id="9qxclZ9WIJRdPY8J6UA6-796" value="" style="endArrow=classic;html=1;rounded=0;entryX=0.5;entryY=0;entryDx=0;entryDy=0;" edge="1" parent="1">
          <mxGeometry width="50" height="50" relative="1" as="geometry">
            <mxPoint x="280" y="980" as="sourcePoint" />
            <mxPoint x="280" y="1000" as="targetPoint" />
          </mxGeometry>
        </mxCell>
        <mxCell id="9qxclZ9WIJRdPY8J6UA6-798" value="" style="endArrow=classic;html=1;rounded=0;entryX=0.5;entryY=0;entryDx=0;entryDy=0;" edge="1" parent="1">
          <mxGeometry width="50" height="50" relative="1" as="geometry">
            <mxPoint x="520" y="980" as="sourcePoint" />
            <mxPoint x="520" y="1000" as="targetPoint" />
          </mxGeometry>
        </mxCell>
        <mxCell id="9qxclZ9WIJRdPY8J6UA6-802" value="" style="endArrow=classic;html=1;rounded=0;entryX=0.5;entryY=0;entryDx=0;entryDy=0;" edge="1" parent="1">
          <mxGeometry width="50" height="50" relative="1" as="geometry">
            <mxPoint x="280" y="820" as="sourcePoint" />
            <mxPoint x="280" y="840" as="targetPoint" />
          </mxGeometry>
        </mxCell>
        <mxCell id="9qxclZ9WIJRdPY8J6UA6-803" value="" style="endArrow=classic;html=1;rounded=0;entryX=0.5;entryY=0;entryDx=0;entryDy=0;" edge="1" parent="1">
          <mxGeometry width="50" height="50" relative="1" as="geometry">
            <mxPoint x="400" y="820" as="sourcePoint" />
            <mxPoint x="400" y="840" as="targetPoint" />
          </mxGeometry>
        </mxCell>
        <mxCell id="9qxclZ9WIJRdPY8J6UA6-804" value="" style="endArrow=classic;html=1;rounded=0;entryX=0.5;entryY=0;entryDx=0;entryDy=0;" edge="1" parent="1">
          <mxGeometry width="50" height="50" relative="1" as="geometry">
            <mxPoint x="519.52" y="820" as="sourcePoint" />
            <mxPoint x="519.52" y="840" as="targetPoint" />
          </mxGeometry>
        </mxCell>
        <mxCell id="9qxclZ9WIJRdPY8J6UA6-806" value="d1" style="endArrow=classic;html=1;rounded=0;entryX=0.5;entryY=0;entryDx=0;entryDy=0;" edge="1" parent="1">
          <mxGeometry x="-1" y="-10" width="50" height="50" relative="1" as="geometry">
            <mxPoint x="300" y="580" as="sourcePoint" />
            <mxPoint x="300" y="600" as="targetPoint" />
            <mxPoint x="10" y="-10" as="offset" />
          </mxGeometry>
        </mxCell>
        <mxCell id="9qxclZ9WIJRdPY8J6UA6-808" value="d3" style="endArrow=classic;html=1;rounded=0;entryX=0.5;entryY=0;entryDx=0;entryDy=0;" edge="1" parent="1">
          <mxGeometry x="-1" y="10" width="50" height="50" relative="1" as="geometry">
            <mxPoint x="499.77" y="580" as="sourcePoint" />
            <mxPoint x="499.77" y="600" as="targetPoint" />
            <mxPoint x="-10" y="-10" as="offset" />
          </mxGeometry>
        </mxCell>
        <mxCell id="9qxclZ9WIJRdPY8J6UA6-810" value="46" style="text;html=1;strokeColor=none;fillColor=none;align=center;verticalAlign=middle;whiteSpace=wrap;rounded=0;" vertex="1" parent="1">
          <mxGeometry x="490" y="610" width="20" height="10" as="geometry" />
        </mxCell>
        <mxCell id="9qxclZ9WIJRdPY8J6UA6-811" value="26" style="text;html=1;strokeColor=none;fillColor=none;align=center;verticalAlign=middle;whiteSpace=wrap;rounded=0;" vertex="1" parent="1">
          <mxGeometry x="290" y="610" width="20" height="10" as="geometry" />
        </mxCell>
        <mxCell id="9qxclZ9WIJRdPY8J6UA6-812" value="d2" style="endArrow=classic;html=1;rounded=0;entryX=0.5;entryY=0;entryDx=0;entryDy=0;" edge="1" parent="1">
          <mxGeometry x="-1" y="-10" width="50" height="50" relative="1" as="geometry">
            <mxPoint x="349.99999999999994" y="580" as="sourcePoint" />
            <mxPoint x="349.99999999999994" y="600" as="targetPoint" />
            <mxPoint x="10" y="-10" as="offset" />
          </mxGeometry>
        </mxCell>
        <mxCell id="9qxclZ9WIJRdPY8J6UA6-813" value="" style="rounded=0;whiteSpace=wrap;html=1;fillColor=#E6E6E6;" vertex="1" parent="1">
          <mxGeometry x="50" y="830" width="10" height="10" as="geometry" />
        </mxCell>
        <mxCell id="9qxclZ9WIJRdPY8J6UA6-814" value="" style="rounded=0;whiteSpace=wrap;html=1;fillColor=#E6E6E6;" vertex="1" parent="1">
          <mxGeometry x="40" y="670" width="10" height="10" as="geometry" />
        </mxCell>
        <mxCell id="9qxclZ9WIJRdPY8J6UA6-818" value="" style="rounded=0;whiteSpace=wrap;html=1;fillColor=#E6E6E6;" vertex="1" parent="1">
          <mxGeometry x="60" y="830" width="10" height="10" as="geometry" />
        </mxCell>
        <mxCell id="9qxclZ9WIJRdPY8J6UA6-819" value="" style="rounded=0;whiteSpace=wrap;html=1;fillColor=#E6E6E6;" vertex="1" parent="1">
          <mxGeometry x="70" y="910" width="10" height="10" as="geometry" />
        </mxCell>
        <mxCell id="9qxclZ9WIJRdPY8J6UA6-820" value="" style="rounded=0;whiteSpace=wrap;html=1;fillColor=#E6E6E6;" vertex="1" parent="1">
          <mxGeometry x="80" y="910" width="10" height="10" as="geometry" />
        </mxCell>
        <mxCell id="9qxclZ9WIJRdPY8J6UA6-821" value="" style="rounded=0;whiteSpace=wrap;html=1;fillColor=#E6E6E6;" vertex="1" parent="1">
          <mxGeometry x="90" y="910" width="10" height="10" as="geometry" />
        </mxCell>
        <mxCell id="9qxclZ9WIJRdPY8J6UA6-822" value="" style="rounded=0;whiteSpace=wrap;html=1;fillColor=#E6E6E6;" vertex="1" parent="1">
          <mxGeometry x="100" y="910" width="10" height="10" as="geometry" />
        </mxCell>
        <mxCell id="9qxclZ9WIJRdPY8J6UA6-823" value="" style="rounded=0;whiteSpace=wrap;html=1;fillColor=#E6E6E6;" vertex="1" parent="1">
          <mxGeometry x="110" y="750" width="10" height="10" as="geometry" />
        </mxCell>
        <mxCell id="9qxclZ9WIJRdPY8J6UA6-824" value="" style="rounded=0;whiteSpace=wrap;html=1;fillColor=#E6E6E6;" vertex="1" parent="1">
          <mxGeometry x="120" y="750" width="10" height="10" as="geometry" />
        </mxCell>
        <mxCell id="9qxclZ9WIJRdPY8J6UA6-825" value="" style="rounded=0;whiteSpace=wrap;html=1;fillColor=#E6E6E6;" vertex="1" parent="1">
          <mxGeometry x="130" y="750" width="10" height="10" as="geometry" />
        </mxCell>
        <mxCell id="9qxclZ9WIJRdPY8J6UA6-826" value="" style="rounded=0;whiteSpace=wrap;html=1;fillColor=#E6E6E6;" vertex="1" parent="1">
          <mxGeometry x="140" y="750" width="10" height="10" as="geometry" />
        </mxCell>
        <mxCell id="9qxclZ9WIJRdPY8J6UA6-827" value="" style="rounded=0;whiteSpace=wrap;html=1;fillColor=#E6E6E6;" vertex="1" parent="1">
          <mxGeometry x="150" y="750" width="10" height="10" as="geometry" />
        </mxCell>
        <mxCell id="9qxclZ9WIJRdPY8J6UA6-828" value="" style="rounded=0;whiteSpace=wrap;html=1;fillColor=#E6E6E6;" vertex="1" parent="1">
          <mxGeometry x="160" y="670" width="10" height="10" as="geometry" />
        </mxCell>
        <mxCell id="9qxclZ9WIJRdPY8J6UA6-793" value="" style="endArrow=classic;html=1;rounded=0;entryX=0.5;entryY=0;entryDx=0;entryDy=0;" edge="1" parent="1">
          <mxGeometry width="50" height="50" relative="1" as="geometry">
            <mxPoint x="160" y="660" as="sourcePoint" />
            <mxPoint x="160" y="680" as="targetPoint" />
          </mxGeometry>
        </mxCell>
        <mxCell id="9qxclZ9WIJRdPY8J6UA6-829" value="" style="rounded=0;whiteSpace=wrap;html=1;fillColor=#E6E6E6;" vertex="1" parent="1">
          <mxGeometry x="170" y="830" width="10" height="10" as="geometry" />
        </mxCell>
        <mxCell id="9qxclZ9WIJRdPY8J6UA6-830" value="" style="rounded=0;whiteSpace=wrap;html=1;fillColor=#E6E6E6;" vertex="1" parent="1">
          <mxGeometry x="180" y="830" width="10" height="10" as="geometry" />
        </mxCell>
        <mxCell id="9qxclZ9WIJRdPY8J6UA6-801" value="" style="endArrow=classic;html=1;rounded=0;entryX=0.5;entryY=0;entryDx=0;entryDy=0;" edge="1" parent="1">
          <mxGeometry width="50" height="50" relative="1" as="geometry">
            <mxPoint x="159.99999999999997" y="820" as="sourcePoint" />
            <mxPoint x="159.99999999999997" y="840" as="targetPoint" />
          </mxGeometry>
        </mxCell>
        <mxCell id="9qxclZ9WIJRdPY8J6UA6-832" value="" style="rounded=0;whiteSpace=wrap;html=1;fillColor=#E6E6E6;" vertex="1" parent="1">
          <mxGeometry x="190" y="990" width="10" height="10" as="geometry" />
        </mxCell>
        <mxCell id="9qxclZ9WIJRdPY8J6UA6-833" value="" style="rounded=0;whiteSpace=wrap;html=1;fillColor=#E6E6E6;" vertex="1" parent="1">
          <mxGeometry x="200" y="990" width="10" height="10" as="geometry" />
        </mxCell>
        <mxCell id="9qxclZ9WIJRdPY8J6UA6-834" value="" style="rounded=0;whiteSpace=wrap;html=1;fillColor=#E6E6E6;" vertex="1" parent="1">
          <mxGeometry x="210" y="990" width="10" height="10" as="geometry" />
        </mxCell>
        <mxCell id="9qxclZ9WIJRdPY8J6UA6-835" value="" style="rounded=0;whiteSpace=wrap;html=1;fillColor=#E6E6E6;" vertex="1" parent="1">
          <mxGeometry x="220" y="590" width="10" height="10" as="geometry" />
        </mxCell>
        <mxCell id="9qxclZ9WIJRdPY8J6UA6-836" value="" style="rounded=0;whiteSpace=wrap;html=1;fillColor=#E6E6E6;" vertex="1" parent="1">
          <mxGeometry x="230" y="590" width="10" height="10" as="geometry" />
        </mxCell>
        <mxCell id="9qxclZ9WIJRdPY8J6UA6-840" value="" style="rounded=0;whiteSpace=wrap;html=1;fillColor=#E6E6E6;" vertex="1" parent="1">
          <mxGeometry x="240" y="590" width="10" height="10" as="geometry" />
        </mxCell>
        <mxCell id="9qxclZ9WIJRdPY8J6UA6-841" value="" style="rounded=0;whiteSpace=wrap;html=1;fillColor=#E6E6E6;" vertex="1" parent="1">
          <mxGeometry x="250" y="590" width="10" height="10" as="geometry" />
        </mxCell>
        <mxCell id="9qxclZ9WIJRdPY8J6UA6-842" value="" style="rounded=0;whiteSpace=wrap;html=1;fillColor=#E6E6E6;" vertex="1" parent="1">
          <mxGeometry x="260" y="590" width="10" height="10" as="geometry" />
        </mxCell>
        <mxCell id="9qxclZ9WIJRdPY8J6UA6-843" value="" style="rounded=0;whiteSpace=wrap;html=1;fillColor=#E6E6E6;" vertex="1" parent="1">
          <mxGeometry x="270" y="910" width="10" height="10" as="geometry" />
        </mxCell>
        <mxCell id="9qxclZ9WIJRdPY8J6UA6-844" value="" style="rounded=0;whiteSpace=wrap;html=1;fillColor=#E6E6E6;" vertex="1" parent="1">
          <mxGeometry x="280" y="910" width="10" height="10" as="geometry" />
        </mxCell>
        <mxCell id="9qxclZ9WIJRdPY8J6UA6-845" value="" style="rounded=0;whiteSpace=wrap;html=1;fillColor=#E6E6E6;" vertex="1" parent="1">
          <mxGeometry x="290" y="910" width="10" height="10" as="geometry" />
        </mxCell>
        <mxCell id="9qxclZ9WIJRdPY8J6UA6-863" value="52" style="text;html=1;strokeColor=none;fillColor=none;align=center;verticalAlign=middle;whiteSpace=wrap;rounded=0;" vertex="1" parent="1">
          <mxGeometry x="550" y="685" width="20" height="10" as="geometry" />
        </mxCell>
        <mxCell id="9qxclZ9WIJRdPY8J6UA6-864" value="56" style="text;html=1;strokeColor=none;fillColor=none;align=center;verticalAlign=middle;whiteSpace=wrap;rounded=0;" vertex="1" parent="1">
          <mxGeometry x="590" y="685" width="20" height="10" as="geometry" />
        </mxCell>
        <mxCell id="9qxclZ9WIJRdPY8J6UA6-865" value="60" style="text;html=1;strokeColor=none;fillColor=none;align=center;verticalAlign=middle;whiteSpace=wrap;rounded=0;" vertex="1" parent="1">
          <mxGeometry x="630" y="685" width="20" height="10" as="geometry" />
        </mxCell>
        <mxCell id="9qxclZ9WIJRdPY8J6UA6-866" value="64" style="text;html=1;strokeColor=none;fillColor=none;align=center;verticalAlign=middle;whiteSpace=wrap;rounded=0;" vertex="1" parent="1">
          <mxGeometry x="670" y="685" width="20" height="10" as="geometry" />
        </mxCell>
        <mxCell id="9qxclZ9WIJRdPY8J6UA6-867" value="72" style="text;html=1;strokeColor=none;fillColor=none;align=center;verticalAlign=middle;whiteSpace=wrap;rounded=0;" vertex="1" parent="1">
          <mxGeometry x="750" y="685" width="20" height="10" as="geometry" />
        </mxCell>
        <mxCell id="9qxclZ9WIJRdPY8J6UA6-869" value="68" style="text;html=1;strokeColor=none;fillColor=none;align=center;verticalAlign=middle;whiteSpace=wrap;rounded=0;" vertex="1" parent="1">
          <mxGeometry x="710" y="685" width="20" height="10" as="geometry" />
        </mxCell>
        <mxCell id="9qxclZ9WIJRdPY8J6UA6-877" value="52" style="text;html=1;strokeColor=none;fillColor=none;align=center;verticalAlign=middle;whiteSpace=wrap;rounded=0;" vertex="1" parent="1">
          <mxGeometry x="550" y="610" width="20" height="10" as="geometry" />
        </mxCell>
        <mxCell id="9qxclZ9WIJRdPY8J6UA6-878" value="56" style="text;html=1;strokeColor=none;fillColor=none;align=center;verticalAlign=middle;whiteSpace=wrap;rounded=0;" vertex="1" parent="1">
          <mxGeometry x="590" y="610" width="20" height="10" as="geometry" />
        </mxCell>
        <mxCell id="9qxclZ9WIJRdPY8J6UA6-879" value="60" style="text;html=1;strokeColor=none;fillColor=none;align=center;verticalAlign=middle;whiteSpace=wrap;rounded=0;" vertex="1" parent="1">
          <mxGeometry x="630" y="610" width="20" height="10" as="geometry" />
        </mxCell>
        <mxCell id="9qxclZ9WIJRdPY8J6UA6-880" value="64" style="text;html=1;strokeColor=none;fillColor=none;align=center;verticalAlign=middle;whiteSpace=wrap;rounded=0;" vertex="1" parent="1">
          <mxGeometry x="670" y="610" width="20" height="10" as="geometry" />
        </mxCell>
        <mxCell id="9qxclZ9WIJRdPY8J6UA6-881" value="72" style="text;html=1;strokeColor=none;fillColor=none;align=center;verticalAlign=middle;whiteSpace=wrap;rounded=0;" vertex="1" parent="1">
          <mxGeometry x="750" y="610" width="20" height="10" as="geometry" />
        </mxCell>
        <mxCell id="9qxclZ9WIJRdPY8J6UA6-882" value="68" style="text;html=1;strokeColor=none;fillColor=none;align=center;verticalAlign=middle;whiteSpace=wrap;rounded=0;" vertex="1" parent="1">
          <mxGeometry x="710" y="610" width="20" height="10" as="geometry" />
        </mxCell>
        <mxCell id="9qxclZ9WIJRdPY8J6UA6-883" value="52" style="text;html=1;strokeColor=none;fillColor=none;align=center;verticalAlign=middle;whiteSpace=wrap;rounded=0;" vertex="1" parent="1">
          <mxGeometry x="550" y="770" width="20" height="10" as="geometry" />
        </mxCell>
        <mxCell id="9qxclZ9WIJRdPY8J6UA6-884" value="56" style="text;html=1;strokeColor=none;fillColor=none;align=center;verticalAlign=middle;whiteSpace=wrap;rounded=0;" vertex="1" parent="1">
          <mxGeometry x="590" y="770" width="20" height="10" as="geometry" />
        </mxCell>
        <mxCell id="9qxclZ9WIJRdPY8J6UA6-885" value="60" style="text;html=1;strokeColor=none;fillColor=none;align=center;verticalAlign=middle;whiteSpace=wrap;rounded=0;" vertex="1" parent="1">
          <mxGeometry x="630" y="770" width="20" height="10" as="geometry" />
        </mxCell>
        <mxCell id="9qxclZ9WIJRdPY8J6UA6-886" value="64" style="text;html=1;strokeColor=none;fillColor=none;align=center;verticalAlign=middle;whiteSpace=wrap;rounded=0;" vertex="1" parent="1">
          <mxGeometry x="670" y="770" width="20" height="10" as="geometry" />
        </mxCell>
        <mxCell id="9qxclZ9WIJRdPY8J6UA6-887" value="72" style="text;html=1;strokeColor=none;fillColor=none;align=center;verticalAlign=middle;whiteSpace=wrap;rounded=0;" vertex="1" parent="1">
          <mxGeometry x="750" y="770" width="20" height="10" as="geometry" />
        </mxCell>
        <mxCell id="9qxclZ9WIJRdPY8J6UA6-888" value="68" style="text;html=1;strokeColor=none;fillColor=none;align=center;verticalAlign=middle;whiteSpace=wrap;rounded=0;" vertex="1" parent="1">
          <mxGeometry x="710" y="770" width="20" height="10" as="geometry" />
        </mxCell>
        <mxCell id="9qxclZ9WIJRdPY8J6UA6-889" value="52" style="text;html=1;strokeColor=none;fillColor=none;align=center;verticalAlign=middle;whiteSpace=wrap;rounded=0;" vertex="1" parent="1">
          <mxGeometry x="550" y="850" width="20" height="10" as="geometry" />
        </mxCell>
        <mxCell id="9qxclZ9WIJRdPY8J6UA6-890" value="56" style="text;html=1;strokeColor=none;fillColor=none;align=center;verticalAlign=middle;whiteSpace=wrap;rounded=0;" vertex="1" parent="1">
          <mxGeometry x="590" y="850" width="20" height="10" as="geometry" />
        </mxCell>
        <mxCell id="9qxclZ9WIJRdPY8J6UA6-891" value="60" style="text;html=1;strokeColor=none;fillColor=none;align=center;verticalAlign=middle;whiteSpace=wrap;rounded=0;" vertex="1" parent="1">
          <mxGeometry x="630" y="850" width="20" height="10" as="geometry" />
        </mxCell>
        <mxCell id="9qxclZ9WIJRdPY8J6UA6-892" value="64" style="text;html=1;strokeColor=none;fillColor=none;align=center;verticalAlign=middle;whiteSpace=wrap;rounded=0;" vertex="1" parent="1">
          <mxGeometry x="670" y="850" width="20" height="10" as="geometry" />
        </mxCell>
        <mxCell id="9qxclZ9WIJRdPY8J6UA6-893" value="72" style="text;html=1;strokeColor=none;fillColor=none;align=center;verticalAlign=middle;whiteSpace=wrap;rounded=0;" vertex="1" parent="1">
          <mxGeometry x="750" y="850" width="20" height="10" as="geometry" />
        </mxCell>
        <mxCell id="9qxclZ9WIJRdPY8J6UA6-894" value="68" style="text;html=1;strokeColor=none;fillColor=none;align=center;verticalAlign=middle;whiteSpace=wrap;rounded=0;" vertex="1" parent="1">
          <mxGeometry x="710" y="850" width="20" height="10" as="geometry" />
        </mxCell>
        <mxCell id="9qxclZ9WIJRdPY8J6UA6-895" value="52" style="text;html=1;strokeColor=none;fillColor=none;align=center;verticalAlign=middle;whiteSpace=wrap;rounded=0;" vertex="1" parent="1">
          <mxGeometry x="550" y="1010" width="20" height="10" as="geometry" />
        </mxCell>
        <mxCell id="9qxclZ9WIJRdPY8J6UA6-896" value="56" style="text;html=1;strokeColor=none;fillColor=none;align=center;verticalAlign=middle;whiteSpace=wrap;rounded=0;" vertex="1" parent="1">
          <mxGeometry x="590" y="1010" width="20" height="10" as="geometry" />
        </mxCell>
        <mxCell id="9qxclZ9WIJRdPY8J6UA6-897" value="60" style="text;html=1;strokeColor=none;fillColor=none;align=center;verticalAlign=middle;whiteSpace=wrap;rounded=0;" vertex="1" parent="1">
          <mxGeometry x="630" y="1010" width="20" height="10" as="geometry" />
        </mxCell>
        <mxCell id="9qxclZ9WIJRdPY8J6UA6-898" value="64" style="text;html=1;strokeColor=none;fillColor=none;align=center;verticalAlign=middle;whiteSpace=wrap;rounded=0;" vertex="1" parent="1">
          <mxGeometry x="670" y="1010" width="20" height="10" as="geometry" />
        </mxCell>
        <mxCell id="9qxclZ9WIJRdPY8J6UA6-899" value="72" style="text;html=1;strokeColor=none;fillColor=none;align=center;verticalAlign=middle;whiteSpace=wrap;rounded=0;" vertex="1" parent="1">
          <mxGeometry x="750" y="1010" width="20" height="10" as="geometry" />
        </mxCell>
        <mxCell id="9qxclZ9WIJRdPY8J6UA6-900" value="68" style="text;html=1;strokeColor=none;fillColor=none;align=center;verticalAlign=middle;whiteSpace=wrap;rounded=0;" vertex="1" parent="1">
          <mxGeometry x="710" y="1010" width="20" height="10" as="geometry" />
        </mxCell>
        <mxCell id="9qxclZ9WIJRdPY8J6UA6-907" value="52" style="text;html=1;strokeColor=none;fillColor=none;align=center;verticalAlign=middle;whiteSpace=wrap;rounded=0;" vertex="1" parent="1">
          <mxGeometry x="550" y="930" width="20" height="10" as="geometry" />
        </mxCell>
        <mxCell id="9qxclZ9WIJRdPY8J6UA6-908" value="56" style="text;html=1;strokeColor=none;fillColor=none;align=center;verticalAlign=middle;whiteSpace=wrap;rounded=0;" vertex="1" parent="1">
          <mxGeometry x="590" y="930" width="20" height="10" as="geometry" />
        </mxCell>
        <mxCell id="9qxclZ9WIJRdPY8J6UA6-909" value="60" style="text;html=1;strokeColor=none;fillColor=none;align=center;verticalAlign=middle;whiteSpace=wrap;rounded=0;" vertex="1" parent="1">
          <mxGeometry x="630" y="930" width="20" height="10" as="geometry" />
        </mxCell>
        <mxCell id="9qxclZ9WIJRdPY8J6UA6-910" value="64" style="text;html=1;strokeColor=none;fillColor=none;align=center;verticalAlign=middle;whiteSpace=wrap;rounded=0;" vertex="1" parent="1">
          <mxGeometry x="670" y="930" width="20" height="10" as="geometry" />
        </mxCell>
        <mxCell id="9qxclZ9WIJRdPY8J6UA6-911" value="72" style="text;html=1;strokeColor=none;fillColor=none;align=center;verticalAlign=middle;whiteSpace=wrap;rounded=0;" vertex="1" parent="1">
          <mxGeometry x="750" y="930" width="20" height="10" as="geometry" />
        </mxCell>
        <mxCell id="9qxclZ9WIJRdPY8J6UA6-912" value="68" style="text;html=1;strokeColor=none;fillColor=none;align=center;verticalAlign=middle;whiteSpace=wrap;rounded=0;" vertex="1" parent="1">
          <mxGeometry x="710" y="930" width="20" height="10" as="geometry" />
        </mxCell>
        <mxCell id="9qxclZ9WIJRdPY8J6UA6-913" value="" style="endArrow=classic;html=1;rounded=0;entryX=0.5;entryY=0;entryDx=0;entryDy=0;" edge="1" parent="1">
          <mxGeometry width="50" height="50" relative="1" as="geometry">
            <mxPoint x="600" y="580" as="sourcePoint" />
            <mxPoint x="600" y="600" as="targetPoint" />
          </mxGeometry>
        </mxCell>
        <mxCell id="9qxclZ9WIJRdPY8J6UA6-924" value="d4" style="edgeLabel;html=1;align=center;verticalAlign=middle;resizable=0;points=[];" vertex="1" connectable="0" parent="9qxclZ9WIJRdPY8J6UA6-913">
          <mxGeometry x="-0.478" y="-1" relative="1" as="geometry">
            <mxPoint x="1" y="-10" as="offset" />
          </mxGeometry>
        </mxCell>
        <mxCell id="9qxclZ9WIJRdPY8J6UA6-914" value="" style="endArrow=classic;html=1;rounded=0;entryX=0.5;entryY=0;entryDx=0;entryDy=0;" edge="1" parent="1">
          <mxGeometry width="50" height="50" relative="1" as="geometry">
            <mxPoint x="760" y="980" as="sourcePoint" />
            <mxPoint x="760" y="1000" as="targetPoint" />
          </mxGeometry>
        </mxCell>
        <mxCell id="9qxclZ9WIJRdPY8J6UA6-915" value="" style="endArrow=classic;html=1;rounded=0;entryX=0.5;entryY=0;entryDx=0;entryDy=0;" edge="1" parent="1">
          <mxGeometry width="50" height="50" relative="1" as="geometry">
            <mxPoint x="759.52" y="900" as="sourcePoint" />
            <mxPoint x="759.52" y="920" as="targetPoint" />
          </mxGeometry>
        </mxCell>
        <mxCell id="9qxclZ9WIJRdPY8J6UA6-916" value="" style="endArrow=classic;html=1;rounded=0;entryX=0.5;entryY=0;entryDx=0;entryDy=0;" edge="1" parent="1">
          <mxGeometry width="50" height="50" relative="1" as="geometry">
            <mxPoint x="639.52" y="820" as="sourcePoint" />
            <mxPoint x="639.52" y="840" as="targetPoint" />
          </mxGeometry>
        </mxCell>
        <mxCell id="9qxclZ9WIJRdPY8J6UA6-917" value="" style="endArrow=classic;html=1;rounded=0;entryX=0.5;entryY=0;entryDx=0;entryDy=0;" edge="1" parent="1">
          <mxGeometry width="50" height="50" relative="1" as="geometry">
            <mxPoint x="759.52" y="820" as="sourcePoint" />
            <mxPoint x="759.52" y="840" as="targetPoint" />
          </mxGeometry>
        </mxCell>
        <mxCell id="9qxclZ9WIJRdPY8J6UA6-919" value="" style="endArrow=classic;html=1;rounded=0;entryX=0.5;entryY=0;entryDx=0;entryDy=0;" edge="1" parent="1">
          <mxGeometry width="50" height="50" relative="1" as="geometry">
            <mxPoint x="759.76" y="740" as="sourcePoint" />
            <mxPoint x="759.76" y="760" as="targetPoint" />
          </mxGeometry>
        </mxCell>
        <mxCell id="9qxclZ9WIJRdPY8J6UA6-920" value="" style="endArrow=classic;html=1;rounded=0;entryX=0.5;entryY=0;entryDx=0;entryDy=0;" edge="1" parent="1">
          <mxGeometry width="50" height="50" relative="1" as="geometry">
            <mxPoint x="639.76" y="660" as="sourcePoint" />
            <mxPoint x="639.76" y="680" as="targetPoint" />
          </mxGeometry>
        </mxCell>
        <mxCell id="9qxclZ9WIJRdPY8J6UA6-921" value="" style="endArrow=classic;html=1;rounded=0;entryX=0.5;entryY=0;entryDx=0;entryDy=0;" edge="1" parent="1">
          <mxGeometry width="50" height="50" relative="1" as="geometry">
            <mxPoint x="759.76" y="660" as="sourcePoint" />
            <mxPoint x="759.76" y="680" as="targetPoint" />
          </mxGeometry>
        </mxCell>
        <mxCell id="9qxclZ9WIJRdPY8J6UA6-930" value="" style="rounded=0;whiteSpace=wrap;html=1;fillColor=#E6E6E6;" vertex="1" parent="1">
          <mxGeometry x="300" y="910" width="10" height="10" as="geometry" />
        </mxCell>
        <mxCell id="9qxclZ9WIJRdPY8J6UA6-932" value="" style="rounded=0;whiteSpace=wrap;html=1;fillColor=#E6E6E6;" vertex="1" parent="1">
          <mxGeometry x="310" y="670" width="10" height="10" as="geometry" />
        </mxCell>
        <mxCell id="9qxclZ9WIJRdPY8J6UA6-940" value="" style="rounded=0;whiteSpace=wrap;html=1;fillColor=#E6E6E6;" vertex="1" parent="1">
          <mxGeometry x="320" y="830" width="10" height="10" as="geometry" />
        </mxCell>
        <mxCell id="9qxclZ9WIJRdPY8J6UA6-941" value="" style="rounded=0;whiteSpace=wrap;html=1;fillColor=#E6E6E6;" vertex="1" parent="1">
          <mxGeometry x="330" y="830" width="10" height="10" as="geometry" />
        </mxCell>
        <mxCell id="9qxclZ9WIJRdPY8J6UA6-942" value="" style="rounded=0;whiteSpace=wrap;html=1;fillColor=#E6E6E6;" vertex="1" parent="1">
          <mxGeometry x="360" y="590" width="10" height="10" as="geometry" />
        </mxCell>
        <mxCell id="9qxclZ9WIJRdPY8J6UA6-943" value="" style="rounded=0;whiteSpace=wrap;html=1;fillColor=#E6E6E6;" vertex="1" parent="1">
          <mxGeometry x="370" y="750" width="10" height="10" as="geometry" />
        </mxCell>
        <mxCell id="9qxclZ9WIJRdPY8J6UA6-944" value="" style="rounded=0;whiteSpace=wrap;html=1;fillColor=#E6E6E6;" vertex="1" parent="1">
          <mxGeometry x="380" y="750" width="10" height="10" as="geometry" />
        </mxCell>
        <mxCell id="9qxclZ9WIJRdPY8J6UA6-945" value="" style="rounded=0;whiteSpace=wrap;html=1;fillColor=#E6E6E6;" vertex="1" parent="1">
          <mxGeometry x="390" y="750" width="10" height="10" as="geometry" />
        </mxCell>
        <mxCell id="9qxclZ9WIJRdPY8J6UA6-946" value="" style="rounded=0;whiteSpace=wrap;html=1;fillColor=#E6E6E6;" vertex="1" parent="1">
          <mxGeometry x="400" y="750" width="10" height="10" as="geometry" />
        </mxCell>
        <mxCell id="9qxclZ9WIJRdPY8J6UA6-947" value="" style="rounded=0;whiteSpace=wrap;html=1;fillColor=#E6E6E6;" vertex="1" parent="1">
          <mxGeometry x="410" y="750" width="10" height="10" as="geometry" />
        </mxCell>
        <mxCell id="9qxclZ9WIJRdPY8J6UA6-948" value="" style="rounded=0;whiteSpace=wrap;html=1;fillColor=#E6E6E6;" vertex="1" parent="1">
          <mxGeometry x="420" y="670" width="10" height="10" as="geometry" />
        </mxCell>
        <mxCell id="9qxclZ9WIJRdPY8J6UA6-949" value="" style="rounded=0;whiteSpace=wrap;html=1;fillColor=#E6E6E6;" vertex="1" parent="1">
          <mxGeometry x="430" y="830" width="10" height="10" as="geometry" />
        </mxCell>
        <mxCell id="9qxclZ9WIJRdPY8J6UA6-950" value="" style="rounded=0;whiteSpace=wrap;html=1;fillColor=#E6E6E6;" vertex="1" parent="1">
          <mxGeometry x="440" y="830" width="10" height="10" as="geometry" />
        </mxCell>
        <mxCell id="9qxclZ9WIJRdPY8J6UA6-951" value="" style="rounded=0;whiteSpace=wrap;html=1;fillColor=#E6E6E6;" vertex="1" parent="1">
          <mxGeometry x="450" y="990" width="10" height="10" as="geometry" />
        </mxCell>
        <mxCell id="9qxclZ9WIJRdPY8J6UA6-952" value="" style="rounded=0;whiteSpace=wrap;html=1;fillColor=#E6E6E6;" vertex="1" parent="1">
          <mxGeometry x="460" y="990" width="10" height="10" as="geometry" />
        </mxCell>
        <mxCell id="9qxclZ9WIJRdPY8J6UA6-953" value="" style="rounded=0;whiteSpace=wrap;html=1;fillColor=#E6E6E6;" vertex="1" parent="1">
          <mxGeometry x="470" y="990" width="10" height="10" as="geometry" />
        </mxCell>
        <mxCell id="9qxclZ9WIJRdPY8J6UA6-954" value="" style="rounded=0;whiteSpace=wrap;html=1;fillColor=#E6E6E6;" vertex="1" parent="1">
          <mxGeometry x="480" y="910" width="10" height="10" as="geometry" />
        </mxCell>
        <mxCell id="9qxclZ9WIJRdPY8J6UA6-955" value="" style="rounded=0;whiteSpace=wrap;html=1;fillColor=#E6E6E6;" vertex="1" parent="1">
          <mxGeometry x="490" y="910" width="10" height="10" as="geometry" />
        </mxCell>
        <mxCell id="9qxclZ9WIJRdPY8J6UA6-956" value="" style="rounded=0;whiteSpace=wrap;html=1;fillColor=#E6E6E6;" vertex="1" parent="1">
          <mxGeometry x="500" y="910" width="10" height="10" as="geometry" />
        </mxCell>
        <mxCell id="9qxclZ9WIJRdPY8J6UA6-957" value="" style="rounded=0;whiteSpace=wrap;html=1;fillColor=#E6E6E6;" vertex="1" parent="1">
          <mxGeometry x="510" y="910" width="10" height="10" as="geometry" />
        </mxCell>
        <mxCell id="9qxclZ9WIJRdPY8J6UA6-958" value="" style="rounded=0;whiteSpace=wrap;html=1;fillColor=#E6E6E6;" vertex="1" parent="1">
          <mxGeometry x="520" y="590" width="10" height="10" as="geometry" />
        </mxCell>
        <mxCell id="9qxclZ9WIJRdPY8J6UA6-959" value="" style="rounded=0;whiteSpace=wrap;html=1;fillColor=#E6E6E6;" vertex="1" parent="1">
          <mxGeometry x="530" y="590" width="10" height="10" as="geometry" />
        </mxCell>
        <mxCell id="9qxclZ9WIJRdPY8J6UA6-960" value="" style="rounded=0;whiteSpace=wrap;html=1;fillColor=#E6E6E6;" vertex="1" parent="1">
          <mxGeometry x="540" y="670" width="10" height="10" as="geometry" />
        </mxCell>
        <mxCell id="9qxclZ9WIJRdPY8J6UA6-961" value="" style="rounded=0;whiteSpace=wrap;html=1;fillColor=#E6E6E6;" vertex="1" parent="1">
          <mxGeometry x="550" y="830" width="10" height="10" as="geometry" />
        </mxCell>
        <mxCell id="9qxclZ9WIJRdPY8J6UA6-962" value="" style="rounded=0;whiteSpace=wrap;html=1;fillColor=#E6E6E6;" vertex="1" parent="1">
          <mxGeometry x="560" y="830" width="10" height="10" as="geometry" />
        </mxCell>
        <mxCell id="9qxclZ9WIJRdPY8J6UA6-963" value="" style="rounded=0;whiteSpace=wrap;html=1;fillColor=#E6E6E6;" vertex="1" parent="1">
          <mxGeometry x="570" y="750" width="10" height="10" as="geometry" />
        </mxCell>
        <mxCell id="9qxclZ9WIJRdPY8J6UA6-964" value="" style="rounded=0;whiteSpace=wrap;html=1;fillColor=#E6E6E6;" vertex="1" parent="1">
          <mxGeometry x="580" y="750" width="10" height="10" as="geometry" />
        </mxCell>
        <mxCell id="9qxclZ9WIJRdPY8J6UA6-965" value="" style="rounded=0;whiteSpace=wrap;html=1;fillColor=#E6E6E6;" vertex="1" parent="1">
          <mxGeometry x="590" y="750" width="10" height="10" as="geometry" />
        </mxCell>
        <mxCell id="9qxclZ9WIJRdPY8J6UA6-966" value="" style="rounded=0;whiteSpace=wrap;html=1;fillColor=#E6E6E6;" vertex="1" parent="1">
          <mxGeometry x="600" y="750" width="10" height="10" as="geometry" />
        </mxCell>
        <mxCell id="9qxclZ9WIJRdPY8J6UA6-967" value="" style="rounded=0;whiteSpace=wrap;html=1;fillColor=#E6E6E6;" vertex="1" parent="1">
          <mxGeometry x="610" y="750" width="10" height="10" as="geometry" />
        </mxCell>
        <mxCell id="9qxclZ9WIJRdPY8J6UA6-968" value="" style="rounded=0;whiteSpace=wrap;html=1;fillColor=#E6E6E6;" vertex="1" parent="1">
          <mxGeometry x="620" y="990" width="10" height="10" as="geometry" />
        </mxCell>
        <mxCell id="9qxclZ9WIJRdPY8J6UA6-969" value="" style="rounded=0;whiteSpace=wrap;html=1;fillColor=#E6E6E6;" vertex="1" parent="1">
          <mxGeometry x="630" y="990" width="10" height="10" as="geometry" />
        </mxCell>
        <mxCell id="9qxclZ9WIJRdPY8J6UA6-970" value="" style="rounded=0;whiteSpace=wrap;html=1;fillColor=#E6E6E6;" vertex="1" parent="1">
          <mxGeometry x="640" y="990" width="10" height="10" as="geometry" />
        </mxCell>
        <mxCell id="9qxclZ9WIJRdPY8J6UA6-971" value="" style="rounded=0;whiteSpace=wrap;html=1;fillColor=#E6E6E6;" vertex="1" parent="1">
          <mxGeometry x="650" y="670" width="10" height="10" as="geometry" />
        </mxCell>
        <mxCell id="9qxclZ9WIJRdPY8J6UA6-972" value="" style="rounded=0;whiteSpace=wrap;html=1;fillColor=#E6E6E6;" vertex="1" parent="1">
          <mxGeometry x="660" y="830" width="10" height="10" as="geometry" />
        </mxCell>
        <mxCell id="9qxclZ9WIJRdPY8J6UA6-973" value="" style="rounded=0;whiteSpace=wrap;html=1;fillColor=#E6E6E6;" vertex="1" parent="1">
          <mxGeometry x="670" y="830" width="10" height="10" as="geometry" />
        </mxCell>
        <mxCell id="9qxclZ9WIJRdPY8J6UA6-974" value="" style="rounded=0;whiteSpace=wrap;html=1;fillColor=#E6E6E6;" vertex="1" parent="1">
          <mxGeometry x="680" y="910" width="10" height="10" as="geometry" />
        </mxCell>
        <mxCell id="9qxclZ9WIJRdPY8J6UA6-975" value="" style="rounded=0;whiteSpace=wrap;html=1;fillColor=#E6E6E6;" vertex="1" parent="1">
          <mxGeometry x="690" y="910" width="10" height="10" as="geometry" />
        </mxCell>
        <mxCell id="9qxclZ9WIJRdPY8J6UA6-976" value="" style="rounded=0;whiteSpace=wrap;html=1;fillColor=#E6E6E6;" vertex="1" parent="1">
          <mxGeometry x="700" y="910" width="10" height="10" as="geometry" />
        </mxCell>
        <mxCell id="9qxclZ9WIJRdPY8J6UA6-977" value="" style="rounded=0;whiteSpace=wrap;html=1;fillColor=#E6E6E6;" vertex="1" parent="1">
          <mxGeometry x="710" y="910" width="10" height="10" as="geometry" />
        </mxCell>
      </root>
    </mxGraphModel>
  </diagram>
</mxfile>
